<?xml version="1.0" encoding="UTF-8" standalone="no"?><svg xmlns="http://www.w3.org/2000/svg" xmlns:xlink="http://www.w3.org/1999/xlink" contentScriptType="application/ecmascript" contentStyleType="text/css" height="554px" preserveAspectRatio="none" style="width:622px;height:554px;" version="1.1" viewBox="0 0 622 554" width="622px" zoomAndPan="magnify"><defs><filter height="300%" id="f7h0h34oxrnnn" width="300%" x="-1" y="-1"><feGaussianBlur result="blurOut" stdDeviation="2.0"/><feColorMatrix in="blurOut" result="blurOut2" type="matrix" values="0 0 0 0 0 0 0 0 0 0 0 0 0 0 0 0 0 0 .4 0"/><feOffset dx="4.0" dy="4.0" in="blurOut2" result="blurOut3"/><feBlend in="SourceGraphic" in2="blurOut3" mode="normal"/></filter></defs><g><!--MD5=[e5cb729776681896271596c23c31c76c]
cluster dataAndStatusGroup--><!--MD5=[60c9ed31c535bee25c55ce21b5b01399]
class Data--><rect codeLine="6" fill="#F8F8F8" filter="url(#f7h0h34oxrnnn)" height="61.8359" id="Data" style="stroke:#383838;stroke-width:1.5;" width="77" x="59" y="76"/><ellipse cx="82.55" cy="92" fill="#C2C2C2" rx="11" ry="11" style="stroke:#383838;stroke-width:1.0;"/><path d="M85.3156,87.875 Q85.4719,87.6563 85.6594,87.5469 Q85.8469,87.4375 86.0656,87.4375 Q86.4406,87.4375 86.675,87.7031 Q86.9094,87.9531 86.9094,88.5625 L86.9094,90.0156 Q86.9094,90.625 86.675,90.8906 Q86.4406,91.1563 86.0656,91.1563 Q85.7219,91.1563 85.5188,90.9531 Q85.3156,90.7656 85.2063,90.25 Q85.1594,89.8906 84.9719,89.7031 Q84.6438,89.3281 84.0344,89.1094 Q83.425,88.8906 82.8,88.8906 Q82.0344,88.8906 81.3938,89.2188 Q80.7688,89.5469 80.2688,90.2969 Q79.7844,91.0469 79.7844,92.0781 L79.7844,93.1719 Q79.7844,94.4063 80.675,95.2344 Q81.5656,96.0469 83.1594,96.0469 Q84.0969,96.0469 84.7531,95.7969 Q85.1438,95.6406 85.5656,95.2031 Q85.8313,94.9375 85.9719,94.8594 Q86.1281,94.7813 86.3313,94.7813 Q86.6594,94.7813 86.9094,95.0469 Q87.175,95.2969 87.175,95.6406 Q87.175,95.9844 86.8313,96.3906 Q86.3313,96.9688 85.5344,97.2969 Q84.4563,97.75 83.1594,97.75 Q81.6438,97.75 80.4406,97.125 Q79.4563,96.625 78.7688,95.5625 Q78.0813,94.4844 78.0813,93.2031 L78.0813,92.0469 Q78.0813,90.7188 78.6906,89.5781 Q79.3156,88.4219 80.4094,87.8125 Q81.5031,87.1875 82.7375,87.1875 Q83.4719,87.1875 84.1125,87.3594 Q84.7688,87.5156 85.3156,87.875 Z " fill="#000000"/><text fill="#000000" font-family="sans-serif" font-size="12" lengthAdjust="spacing" textLength="26" x="98.45" y="96.9102">Data</text><line style="stroke:#383838;stroke-width:1.5;" x1="60" x2="135" y1="108" y2="108"/><text fill="#000000" font-family="sans-serif" font-size="11" lengthAdjust="spacing" textLength="65" x="65" y="123.4189">+vGuestBook</text><line style="stroke:#383838;stroke-width:1.5;" x1="60" x2="135" y1="129.8359" y2="129.8359"/><!--MD5=[e3d83ec5fd90ea9f3f2bfe265cb53458]
class Status--><rect codeLine="10" fill="#F8F8F8" filter="url(#f7h0h34oxrnnn)" height="131.0156" id="Status" style="stroke:#383838;stroke-width:1.5;" width="131" x="7" y="285"/><ellipse cx="50.8" cy="301" fill="#C2C2C2" rx="11" ry="11" style="stroke:#383838;stroke-width:1.0;"/><path d="M53.5656,296.875 Q53.7219,296.6563 53.9094,296.5469 Q54.0969,296.4375 54.3156,296.4375 Q54.6906,296.4375 54.925,296.7031 Q55.1594,296.9531 55.1594,297.5625 L55.1594,299.0156 Q55.1594,299.625 54.925,299.8906 Q54.6906,300.1563 54.3156,300.1563 Q53.9719,300.1563 53.7688,299.9531 Q53.5656,299.7656 53.4563,299.25 Q53.4094,298.8906 53.2219,298.7031 Q52.8938,298.3281 52.2844,298.1094 Q51.675,297.8906 51.05,297.8906 Q50.2844,297.8906 49.6438,298.2188 Q49.0188,298.5469 48.5188,299.2969 Q48.0344,300.0469 48.0344,301.0781 L48.0344,302.1719 Q48.0344,303.4063 48.925,304.2344 Q49.8156,305.0469 51.4094,305.0469 Q52.3469,305.0469 53.0031,304.7969 Q53.3938,304.6406 53.8156,304.2031 Q54.0813,303.9375 54.2219,303.8594 Q54.3781,303.7813 54.5813,303.7813 Q54.9094,303.7813 55.1594,304.0469 Q55.425,304.2969 55.425,304.6406 Q55.425,304.9844 55.0813,305.3906 Q54.5813,305.9688 53.7844,306.2969 Q52.7063,306.75 51.4094,306.75 Q49.8938,306.75 48.6906,306.125 Q47.7063,305.625 47.0188,304.5625 Q46.3313,303.4844 46.3313,302.2031 L46.3313,301.0469 Q46.3313,299.7188 46.9406,298.5781 Q47.5656,297.4219 48.6594,296.8125 Q49.7531,296.1875 50.9875,296.1875 Q51.7219,296.1875 52.3625,296.3594 Q53.0188,296.5156 53.5656,296.875 Z " fill="#000000"/><text fill="#000000" font-family="sans-serif" font-size="12" lengthAdjust="spacing" textLength="35" x="71.2" y="305.9102">Status</text><line style="stroke:#383838;stroke-width:1.5;" x1="8" x2="137" y1="317" y2="317"/><text fill="#000000" font-family="sans-serif" font-size="11" lengthAdjust="spacing" textLength="119" x="13" y="332.4189">-bExecutionStatus = true</text><text fill="#000000" font-family="sans-serif" font-size="11" lengthAdjust="spacing" textLength="84" x="13" y="346.2549">-spExecMessage</text><line style="stroke:#383838;stroke-width:1.5;" x1="8" x2="137" y1="352.6719" y2="352.6719"/><text fill="#000000" font-family="sans-serif" font-size="11" lengthAdjust="spacing" textLength="60" x="13" y="368.0908">+setStatus()</text><text fill="#000000" font-family="sans-serif" font-size="11" lengthAdjust="spacing" textLength="104" x="13" y="381.9268">+setStatusMessage()</text><text fill="#000000" font-family="sans-serif" font-size="11" lengthAdjust="spacing" textLength="60" x="13" y="395.7627">+getStatus()</text><text fill="#000000" font-family="sans-serif" font-size="11" lengthAdjust="spacing" textLength="104" x="13" y="409.5986">+getStatusMessage()</text><!--MD5=[3c3a3d87acb692e8645baa041af43ebf]
class TaskQueue--><rect codeLine="19" fill="#F8F8F8" filter="url(#f7h0h34oxrnnn)" height="200.1953" id="TaskQueue" style="stroke:#383838;stroke-width:1.5;" width="139" x="171" y="7"/><ellipse cx="205.35" cy="23" fill="#C2C2C2" rx="11" ry="11" style="stroke:#383838;stroke-width:1.0;"/><path d="M208.1156,18.875 Q208.2719,18.6563 208.4594,18.5469 Q208.6469,18.4375 208.8656,18.4375 Q209.2406,18.4375 209.475,18.7031 Q209.7094,18.9531 209.7094,19.5625 L209.7094,21.0156 Q209.7094,21.625 209.475,21.8906 Q209.2406,22.1563 208.8656,22.1563 Q208.5219,22.1563 208.3188,21.9531 Q208.1156,21.7656 208.0063,21.25 Q207.9594,20.8906 207.7719,20.7031 Q207.4438,20.3281 206.8344,20.1094 Q206.225,19.8906 205.6,19.8906 Q204.8344,19.8906 204.1938,20.2188 Q203.5688,20.5469 203.0688,21.2969 Q202.5844,22.0469 202.5844,23.0781 L202.5844,24.1719 Q202.5844,25.4063 203.475,26.2344 Q204.3656,27.0469 205.9594,27.0469 Q206.8969,27.0469 207.5531,26.7969 Q207.9438,26.6406 208.3656,26.2031 Q208.6313,25.9375 208.7719,25.8594 Q208.9281,25.7813 209.1313,25.7813 Q209.4594,25.7813 209.7094,26.0469 Q209.975,26.2969 209.975,26.6406 Q209.975,26.9844 209.6313,27.3906 Q209.1313,27.9688 208.3344,28.2969 Q207.2563,28.75 205.9594,28.75 Q204.4438,28.75 203.2406,28.125 Q202.2563,27.625 201.5688,26.5625 Q200.8813,25.4844 200.8813,24.2031 L200.8813,23.0469 Q200.8813,21.7188 201.4906,20.5781 Q202.1156,19.4219 203.2094,18.8125 Q204.3031,18.1875 205.5375,18.1875 Q206.2719,18.1875 206.9125,18.3594 Q207.5688,18.5156 208.1156,18.875 Z " fill="#000000"/><text fill="#000000" font-family="sans-serif" font-size="12" lengthAdjust="spacing" textLength="64" x="223.65" y="27.9102">TaskQueue</text><line style="stroke:#383838;stroke-width:1.5;" x1="172" x2="309" y1="39" y2="39"/><text fill="#000000" font-family="sans-serif" font-size="11" lengthAdjust="spacing" textLength="59" x="177" y="54.4189">-TaskQueue</text><text fill="#000000" font-family="sans-serif" font-size="11" lengthAdjust="spacing" textLength="38" x="177" y="68.2549">-spData</text><text fill="#000000" font-family="sans-serif" font-size="11" lengthAdjust="spacing" textLength="47" x="177" y="82.0908">-spStatus</text><text fill="#000000" font-family="sans-serif" font-size="11" lengthAdjust="spacing" textLength="45" x="177" y="95.9268">-spTask1</text><text fill="#000000" font-family="sans-serif" font-size="11" lengthAdjust="spacing" textLength="45" x="177" y="109.7627">-spTask2</text><text fill="#000000" font-family="sans-serif" font-size="11" lengthAdjust="spacing" textLength="45" x="177" y="123.5986">-spTask3</text><text fill="#000000" font-family="sans-serif" font-size="11" lengthAdjust="spacing" textLength="45" x="177" y="137.4346">-spTask4</text><line style="stroke:#383838;stroke-width:1.5;" x1="172" x2="309" y1="143.8516" y2="143.8516"/><text fill="#000000" font-family="sans-serif" font-size="11" lengthAdjust="spacing" textLength="55" x="177" y="159.2705">+addTask()</text><text fill="#000000" font-family="sans-serif" font-size="11" lengthAdjust="spacing" textLength="44" x="177" y="173.1064">+runTQ()</text><text fill="#000000" font-family="sans-serif" font-size="11" lengthAdjust="spacing" textLength="127" x="177" y="186.9424">#checkForChangingTask()</text><text fill="#000000" font-family="sans-serif" font-size="11" lengthAdjust="spacing" textLength="73" x="177" y="200.7783">#changeTask()</text><!--MD5=[b34797a66dc35cbf1d65f7e3ca75530e]
class Task--><rect codeLine="33" fill="#F8F8F8" filter="url(#f7h0h34oxrnnn)" height="117.1797" id="Task" style="stroke:#383838;stroke-width:1.5;" width="105" x="324" y="292"/><ellipse cx="359.7" cy="308" fill="#C2C2C2" rx="11" ry="11" style="stroke:#383838;stroke-width:1.0;"/><path d="M362.4656,303.875 Q362.6219,303.6563 362.8094,303.5469 Q362.9969,303.4375 363.2156,303.4375 Q363.5906,303.4375 363.825,303.7031 Q364.0594,303.9531 364.0594,304.5625 L364.0594,306.0156 Q364.0594,306.625 363.825,306.8906 Q363.5906,307.1563 363.2156,307.1563 Q362.8719,307.1563 362.6688,306.9531 Q362.4656,306.7656 362.3563,306.25 Q362.3094,305.8906 362.1219,305.7031 Q361.7938,305.3281 361.1844,305.1094 Q360.575,304.8906 359.95,304.8906 Q359.1844,304.8906 358.5438,305.2188 Q357.9188,305.5469 357.4188,306.2969 Q356.9344,307.0469 356.9344,308.0781 L356.9344,309.1719 Q356.9344,310.4063 357.825,311.2344 Q358.7156,312.0469 360.3094,312.0469 Q361.2469,312.0469 361.9031,311.7969 Q362.2938,311.6406 362.7156,311.2031 Q362.9813,310.9375 363.1219,310.8594 Q363.2781,310.7813 363.4813,310.7813 Q363.8094,310.7813 364.0594,311.0469 Q364.325,311.2969 364.325,311.6406 Q364.325,311.9844 363.9813,312.3906 Q363.4813,312.9688 362.6844,313.2969 Q361.6063,313.75 360.3094,313.75 Q358.7938,313.75 357.5906,313.125 Q356.6063,312.625 355.9188,311.5625 Q355.2313,310.4844 355.2313,309.2031 L355.2313,308.0469 Q355.2313,306.7188 355.8406,305.5781 Q356.4656,304.4219 357.5594,303.8125 Q358.6531,303.1875 359.8875,303.1875 Q360.6219,303.1875 361.2625,303.3594 Q361.9188,303.5156 362.4656,303.875 Z " fill="#000000"/><text fill="#000000" font-family="sans-serif" font-size="12" lengthAdjust="spacing" textLength="27" x="378.3" y="312.9102">Task</text><line style="stroke:#383838;stroke-width:1.5;" x1="325" x2="428" y1="324" y2="324"/><text fill="#000000" font-family="sans-serif" font-size="11" lengthAdjust="spacing" textLength="40" x="330" y="339.4189">#spData</text><text fill="#000000" font-family="sans-serif" font-size="11" lengthAdjust="spacing" textLength="49" x="330" y="353.2549">#spStatus</text><line style="stroke:#383838;stroke-width:1.5;" x1="325" x2="428" y1="359.6719" y2="359.6719"/><text fill="#000000" font-family="sans-serif" font-size="11" font-style="italic" lengthAdjust="spacing" textLength="78" x="330" y="375.0908">+executeTask()</text><text fill="#000000" font-family="sans-serif" font-size="11" lengthAdjust="spacing" textLength="84" x="330" y="388.9268">+setDataPointer()</text><text fill="#000000" font-family="sans-serif" font-size="11" lengthAdjust="spacing" textLength="93" x="330" y="402.7627">+setStatusPointer()</text><!--MD5=[322831c7fb07c6c72ab5bbd550828810]
class Task1--><rect codeLine="40" fill="#F8F8F8" filter="url(#f7h0h34oxrnnn)" height="61.8359" id="Task1" style="stroke:#383838;stroke-width:1.5;" width="88" x="274.5" y="479"/><ellipse cx="299.4" cy="495" fill="#C2C2C2" rx="11" ry="11" style="stroke:#383838;stroke-width:1.0;"/><path d="M302.1656,490.875 Q302.3219,490.6563 302.5094,490.5469 Q302.6969,490.4375 302.9156,490.4375 Q303.2906,490.4375 303.525,490.7031 Q303.7594,490.9531 303.7594,491.5625 L303.7594,493.0156 Q303.7594,493.625 303.525,493.8906 Q303.2906,494.1563 302.9156,494.1563 Q302.5719,494.1563 302.3688,493.9531 Q302.1656,493.7656 302.0563,493.25 Q302.0094,492.8906 301.8219,492.7031 Q301.4938,492.3281 300.8844,492.1094 Q300.275,491.8906 299.65,491.8906 Q298.8844,491.8906 298.2438,492.2188 Q297.6188,492.5469 297.1188,493.2969 Q296.6344,494.0469 296.6344,495.0781 L296.6344,496.1719 Q296.6344,497.4063 297.525,498.2344 Q298.4156,499.0469 300.0094,499.0469 Q300.9469,499.0469 301.6031,498.7969 Q301.9938,498.6406 302.4156,498.2031 Q302.6813,497.9375 302.8219,497.8594 Q302.9781,497.7813 303.1813,497.7813 Q303.5094,497.7813 303.7594,498.0469 Q304.025,498.2969 304.025,498.6406 Q304.025,498.9844 303.6813,499.3906 Q303.1813,499.9688 302.3844,500.2969 Q301.3063,500.75 300.0094,500.75 Q298.4938,500.75 297.2906,500.125 Q296.3063,499.625 295.6188,498.5625 Q294.9313,497.4844 294.9313,496.2031 L294.9313,495.0469 Q294.9313,493.7188 295.5406,492.5781 Q296.1656,491.4219 297.2594,490.8125 Q298.3531,490.1875 299.5875,490.1875 Q300.3219,490.1875 300.9625,490.3594 Q301.6188,490.5156 302.1656,490.875 Z " fill="#000000"/><text fill="#000000" font-family="sans-serif" font-size="12" lengthAdjust="spacing" textLength="34" x="315.6" y="499.9102">Task1</text><line style="stroke:#383838;stroke-width:1.5;" x1="275.5" x2="361.5" y1="511" y2="511"/><line style="stroke:#383838;stroke-width:1.5;" x1="275.5" x2="361.5" y1="519" y2="519"/><text fill="#000000" font-family="sans-serif" font-size="11" lengthAdjust="spacing" textLength="76" x="280.5" y="534.4189">+executeTask()</text><!--MD5=[919b16c34e1bc5925aa13477dc23c5a6]
class Task2--><rect codeLine="43" fill="#F8F8F8" filter="url(#f7h0h34oxrnnn)" height="61.8359" id="Task2" style="stroke:#383838;stroke-width:1.5;" width="88" x="151.5" y="479"/><ellipse cx="176.4" cy="495" fill="#C2C2C2" rx="11" ry="11" style="stroke:#383838;stroke-width:1.0;"/><path d="M179.1656,490.875 Q179.3219,490.6563 179.5094,490.5469 Q179.6969,490.4375 179.9156,490.4375 Q180.2906,490.4375 180.525,490.7031 Q180.7594,490.9531 180.7594,491.5625 L180.7594,493.0156 Q180.7594,493.625 180.525,493.8906 Q180.2906,494.1563 179.9156,494.1563 Q179.5719,494.1563 179.3688,493.9531 Q179.1656,493.7656 179.0563,493.25 Q179.0094,492.8906 178.8219,492.7031 Q178.4938,492.3281 177.8844,492.1094 Q177.275,491.8906 176.65,491.8906 Q175.8844,491.8906 175.2438,492.2188 Q174.6188,492.5469 174.1188,493.2969 Q173.6344,494.0469 173.6344,495.0781 L173.6344,496.1719 Q173.6344,497.4063 174.525,498.2344 Q175.4156,499.0469 177.0094,499.0469 Q177.9469,499.0469 178.6031,498.7969 Q178.9938,498.6406 179.4156,498.2031 Q179.6813,497.9375 179.8219,497.8594 Q179.9781,497.7813 180.1813,497.7813 Q180.5094,497.7813 180.7594,498.0469 Q181.025,498.2969 181.025,498.6406 Q181.025,498.9844 180.6813,499.3906 Q180.1813,499.9688 179.3844,500.2969 Q178.3063,500.75 177.0094,500.75 Q175.4938,500.75 174.2906,500.125 Q173.3063,499.625 172.6188,498.5625 Q171.9313,497.4844 171.9313,496.2031 L171.9313,495.0469 Q171.9313,493.7188 172.5406,492.5781 Q173.1656,491.4219 174.2594,490.8125 Q175.3531,490.1875 176.5875,490.1875 Q177.3219,490.1875 177.9625,490.3594 Q178.6188,490.5156 179.1656,490.875 Z " fill="#000000"/><text fill="#000000" font-family="sans-serif" font-size="12" lengthAdjust="spacing" textLength="34" x="192.6" y="499.9102">Task2</text><line style="stroke:#383838;stroke-width:1.5;" x1="152.5" x2="238.5" y1="511" y2="511"/><line style="stroke:#383838;stroke-width:1.5;" x1="152.5" x2="238.5" y1="519" y2="519"/><text fill="#000000" font-family="sans-serif" font-size="11" lengthAdjust="spacing" textLength="76" x="157.5" y="534.4189">+executeTask()</text><!--MD5=[17e21927907ef8af5f899d46c6ba6031]
class Task3--><rect codeLine="46" fill="#F8F8F8" filter="url(#f7h0h34oxrnnn)" height="61.8359" id="Task3" style="stroke:#383838;stroke-width:1.5;" width="88" x="520.5" y="479"/><ellipse cx="545.4" cy="495" fill="#C2C2C2" rx="11" ry="11" style="stroke:#383838;stroke-width:1.0;"/><path d="M548.1656,490.875 Q548.3219,490.6563 548.5094,490.5469 Q548.6969,490.4375 548.9156,490.4375 Q549.2906,490.4375 549.525,490.7031 Q549.7594,490.9531 549.7594,491.5625 L549.7594,493.0156 Q549.7594,493.625 549.525,493.8906 Q549.2906,494.1563 548.9156,494.1563 Q548.5719,494.1563 548.3688,493.9531 Q548.1656,493.7656 548.0563,493.25 Q548.0094,492.8906 547.8219,492.7031 Q547.4938,492.3281 546.8844,492.1094 Q546.275,491.8906 545.65,491.8906 Q544.8844,491.8906 544.2438,492.2188 Q543.6188,492.5469 543.1188,493.2969 Q542.6344,494.0469 542.6344,495.0781 L542.6344,496.1719 Q542.6344,497.4063 543.525,498.2344 Q544.4156,499.0469 546.0094,499.0469 Q546.9469,499.0469 547.6031,498.7969 Q547.9938,498.6406 548.4156,498.2031 Q548.6813,497.9375 548.8219,497.8594 Q548.9781,497.7813 549.1813,497.7813 Q549.5094,497.7813 549.7594,498.0469 Q550.025,498.2969 550.025,498.6406 Q550.025,498.9844 549.6813,499.3906 Q549.1813,499.9688 548.3844,500.2969 Q547.3063,500.75 546.0094,500.75 Q544.4938,500.75 543.2906,500.125 Q542.3063,499.625 541.6188,498.5625 Q540.9313,497.4844 540.9313,496.2031 L540.9313,495.0469 Q540.9313,493.7188 541.5406,492.5781 Q542.1656,491.4219 543.2594,490.8125 Q544.3531,490.1875 545.5875,490.1875 Q546.3219,490.1875 546.9625,490.3594 Q547.6188,490.5156 548.1656,490.875 Z " fill="#000000"/><text fill="#000000" font-family="sans-serif" font-size="12" lengthAdjust="spacing" textLength="34" x="561.6" y="499.9102">Task3</text><line style="stroke:#383838;stroke-width:1.5;" x1="521.5" x2="607.5" y1="511" y2="511"/><line style="stroke:#383838;stroke-width:1.5;" x1="521.5" x2="607.5" y1="519" y2="519"/><text fill="#000000" font-family="sans-serif" font-size="11" lengthAdjust="spacing" textLength="76" x="526.5" y="534.4189">+executeTask()</text><!--MD5=[10449178d0628e7b0ec52443822bf3d2]
class Task4--><rect codeLine="49" fill="#F8F8F8" filter="url(#f7h0h34oxrnnn)" height="61.8359" id="Task4" style="stroke:#383838;stroke-width:1.5;" width="88" x="397.5" y="479"/><ellipse cx="422.4" cy="495" fill="#C2C2C2" rx="11" ry="11" style="stroke:#383838;stroke-width:1.0;"/><path d="M425.1656,490.875 Q425.3219,490.6563 425.5094,490.5469 Q425.6969,490.4375 425.9156,490.4375 Q426.2906,490.4375 426.525,490.7031 Q426.7594,490.9531 426.7594,491.5625 L426.7594,493.0156 Q426.7594,493.625 426.525,493.8906 Q426.2906,494.1563 425.9156,494.1563 Q425.5719,494.1563 425.3688,493.9531 Q425.1656,493.7656 425.0563,493.25 Q425.0094,492.8906 424.8219,492.7031 Q424.4938,492.3281 423.8844,492.1094 Q423.275,491.8906 422.65,491.8906 Q421.8844,491.8906 421.2438,492.2188 Q420.6188,492.5469 420.1188,493.2969 Q419.6344,494.0469 419.6344,495.0781 L419.6344,496.1719 Q419.6344,497.4063 420.525,498.2344 Q421.4156,499.0469 423.0094,499.0469 Q423.9469,499.0469 424.6031,498.7969 Q424.9938,498.6406 425.4156,498.2031 Q425.6813,497.9375 425.8219,497.8594 Q425.9781,497.7813 426.1813,497.7813 Q426.5094,497.7813 426.7594,498.0469 Q427.025,498.2969 427.025,498.6406 Q427.025,498.9844 426.6813,499.3906 Q426.1813,499.9688 425.3844,500.2969 Q424.3063,500.75 423.0094,500.75 Q421.4938,500.75 420.2906,500.125 Q419.3063,499.625 418.6188,498.5625 Q417.9313,497.4844 417.9313,496.2031 L417.9313,495.0469 Q417.9313,493.7188 418.5406,492.5781 Q419.1656,491.4219 420.2594,490.8125 Q421.3531,490.1875 422.5875,490.1875 Q423.3219,490.1875 423.9625,490.3594 Q424.6188,490.5156 425.1656,490.875 Z " fill="#000000"/><text fill="#000000" font-family="sans-serif" font-size="12" lengthAdjust="spacing" textLength="34" x="438.6" y="499.9102">Task4</text><line style="stroke:#383838;stroke-width:1.5;" x1="398.5" x2="484.5" y1="511" y2="511"/><line style="stroke:#383838;stroke-width:1.5;" x1="398.5" x2="484.5" y1="519" y2="519"/><text fill="#000000" font-family="sans-serif" font-size="11" lengthAdjust="spacing" textLength="76" x="403.5" y="534.4189">+executeTask()</text><!--MD5=[2ac735eaaf70f6a1dab79ab71d189e63]
reverse link Task to Task1--><path codeLine="53" d="M348.29,428.11 C341.68,446.06 335.02,464.15 329.67,478.66 " fill="none" id="Task-backto-Task1" style="stroke:#383838;stroke-width:1.0;"/><polygon fill="none" points="341.75,425.6,355.23,409.25,354.89,430.44,341.75,425.6" style="stroke:#383838;stroke-width:1.0;"/><!--MD5=[0d429ce4c25390a0a3a59fc889c5ac77]
reverse link Task to Task2--><path codeLine="54" d="M308.35,410.8 C281.66,434.02 252.22,459.65 230.1,478.9 " fill="none" id="Task-backto-Task2" style="stroke:#383838;stroke-width:1.0;"/><polygon fill="none" points="303.98,405.33,323.66,397.48,313.17,415.89,303.98,405.33" style="stroke:#383838;stroke-width:1.0;"/><!--MD5=[8d6b5d20b56cef58995d69385888f5ae]
reverse link Task to Task3--><path codeLine="55" d="M444.49,408.46 C472.93,432.28 504.81,458.99 528.56,478.89 " fill="none" id="Task-backto-Task3" style="stroke:#383838;stroke-width:1.0;"/><polygon fill="none" points="439.95,413.79,429.12,395.58,448.94,403.06,439.95,413.79" style="stroke:#383838;stroke-width:1.0;"/><!--MD5=[54334587b68f040dbd72d056d26daf40]
reverse link Task to Task4--><path codeLine="56" d="M408,427.83 C415.45,445.87 422.96,464.07 428.98,478.66 " fill="none" id="Task-backto-Task4" style="stroke:#383838;stroke-width:1.0;"/><polygon fill="none" points="401.49,430.41,400.33,409.25,414.43,425.07,401.49,430.41" style="stroke:#383838;stroke-width:1.0;"/><!--MD5=[64bd2c3f3d4c401dece5141b33a14ce0]
link TaskQueue to Data--><path codeLine="58" d="M158.7416,129.713 C158.7416,129.713 151.75,128.94 148.78,128.39 " fill="none" id="TaskQueue-Data" style="stroke:#383838;stroke-width:1.0;"/><polygon fill="#383838" points="136.04,125.31,143.8477,131.3133,140.8999,126.4852,145.728,123.5374,136.04,125.31" style="stroke:#383838;stroke-width:1.0;"/><line style="stroke:#383838;stroke-width:1.0;" x1="140.8999" x2="148.68" y1="126.4852" y2="128.365"/><polygon fill="#FFFFFF" points="170.73,130.24,164.9114,125.9804,158.7416,129.713,164.5601,133.9727,170.73,130.24" style="stroke:#383838;stroke-width:1.0;"/><!--MD5=[64bd2c3f3d4c401dece5141b33a14ce0]
link TaskQueue to Data--><!--MD5=[274571e9f05a220cdba89e0885097da5]
link TaskQueue to Status--><path codeLine="59" d="M163.9641,200.1682 C163.9641,200.1682 128.36,250.78 113.2,273.86 " fill="none" id="TaskQueue-Status" style="stroke:#383838;stroke-width:1.0;"/><polygon fill="#383838" points="105.97,284.96,114.2371,279.6069,108.7015,280.7721,107.5364,275.2365,105.97,284.96" style="stroke:#383838;stroke-width:1.0;"/><line style="stroke:#383838;stroke-width:1.0;" x1="108.7015" x2="113.06" y1="280.7721" y2="274.065"/><polygon fill="#FFFFFF" points="170.99,190.44,164.2343,192.9621,163.9641,200.1682,170.7198,197.646,170.99,190.44" style="stroke:#383838;stroke-width:1.0;"/><!--MD5=[274571e9f05a220cdba89e0885097da5]
link TaskQueue to Status--><!--MD5=[6d7daa260a488c986cc9e89cc75bcb17]
link TaskQueue to Task1--><path codeLine="60" d="M262.0623,218.901 C262.0623,218.901 298.78,407.61 310.12,465.91 " fill="none" id="TaskQueue-Task1" style="stroke:#383838;stroke-width:1.0;"/><polygon fill="#383838" points="312.66,478.98,314.8753,469.3835,311.709,474.0713,307.0213,470.9051,312.66,478.98" style="stroke:#383838;stroke-width:1.0;"/><line style="stroke:#383838;stroke-width:1.0;" x1="311.709" x2="310.175" y1="474.0713" y2="466.215"/><polygon fill="#383838" points="259.78,207.12,256.9942,213.7713,262.0623,218.901,264.8481,212.2497,259.78,207.12" style="stroke:#383838;stroke-width:1.0;"/><!--MD5=[82f7d915e3d15e9b3565d5eff5319dc2]
link TaskQueue to Task2--><path codeLine="61" d="M228.049,219.046 C228.049,219.046 206.87,407.69 200.33,465.93 " fill="none" id="TaskQueue-Task2" style="stroke:#383838;stroke-width:1.0;"/><polygon fill="#383838" points="198.87,478.98,203.8446,470.4798,199.4252,474.0109,195.894,469.5915,198.87,478.98" style="stroke:#383838;stroke-width:1.0;"/><line style="stroke:#383838;stroke-width:1.0;" x1="199.4252" x2="200.32" y1="474.0109" y2="466.055"/><polygon fill="#383838" points="229.38,207.12,224.7392,212.6393,228.049,219.046,232.6898,213.5266,229.38,207.12" style="stroke:#383838;stroke-width:1.0;"/><!--MD5=[6127048a9e067b1b96eae2a95053dc7a]
link TaskQueue to Task3--><path codeLine="62" d="M320.9213,146.6401 C320.9213,146.6401 412.41,200.66 449.5,237 C514.56,300.75 544.71,407.01 557.06,466.08 " fill="none" id="TaskQueue-Task3" style="stroke:#383838;stroke-width:1.0;"/><polygon fill="#383838" points="559.63,478.99,561.7914,469.3812,558.6515,474.0867,553.9461,470.9468,559.63,478.99" style="stroke:#383838;stroke-width:1.0;"/><line style="stroke:#383838;stroke-width:1.0;" x1="558.6515" x2="557.09" y1="474.0867" y2="466.24"/><polygon fill="#383838" points="310.34,140.98,313.744,147.3371,320.9213,146.6401,317.5173,140.2829,310.34,140.98" style="stroke:#383838;stroke-width:1.0;"/><!--MD5=[f876d01927db1a3fc265a182f8558cd6]
link TaskQueue to Task4--><path codeLine="63" d="M320.117,152.371 C320.117,152.371 420.63,228.67 446.5,285 C473.23,343.2 463.51,419.18 453.17,466.01 " fill="none" id="TaskQueue-Task4" style="stroke:#383838;stroke-width:1.0;"/><polygon fill="#383838" points="450.19,478.69,456.1327,470.836,451.3275,473.8211,448.3425,469.016,450.19,478.69" style="stroke:#383838;stroke-width:1.0;"/><line style="stroke:#383838;stroke-width:1.0;" x1="451.3275" x2="453.16" y1="473.8211" y2="466.035"/><polygon fill="#383838" points="310.05,145.84,312.9065,152.4612,320.117,152.371,317.2605,145.7498,310.05,145.84" style="stroke:#383838;stroke-width:1.0;"/><!--MD5=[20d01a4b8ba3460d43a9bec3d1fbb804]
link TaskQueue to Task--><path codeLine="65" d="M296.41,207.27 C311.65,234.34 327.73,262.89 341.45,287.26 " fill="none" id="TaskQueue-to-Task" style="stroke:#383838;stroke-width:1.0;stroke-dasharray:7.0,7.0;"/><polygon fill="#383838" points="343.98,291.76,343.0433,281.9558,341.5239,287.4048,336.0749,285.8855,343.98,291.76" style="stroke:#383838;stroke-width:1.0;"/><text fill="#000000" font-family="sans-serif" font-size="13" lengthAdjust="spacing" textLength="42" x="322.5" y="251.4951">«uses»</text><!--MD5=[565a62bc6257387e7aedcdc61096ef1d]
link Data to Status--><!--MD5=[d3bc3b000596c2da849655f45d0f2fd7]
@startuml

skinparam monochrome true
skinparam classAttributeIconSize 0

together dataAndStatusGroup{
    class Data{
        +vGuestBook
    }

    class Status{
        +setStatus()
        +setStatusMessage()
        +getStatus()
        +getStatusMessage()
        -bExecutionStatus = true
        -spExecMessage
    }
}
class TaskQueue{
    -TaskQueue
    -spData
    -spStatus
    -spTask1
    -spTask2
    -spTask3
    -spTask4
    +addTask()
    +runTQ()
    #checkForChangingTask()
    #changeTask()
}

class Task{
    #spData
    #spStatus
    {abstract}+executeTask()
    +setDataPointer()
    +setStatusPointer()
}
class Task1{
    +executeTask()
}
class Task2{
    +executeTask()
}
class Task3{
    +executeTask()
}
class Task4{
    +executeTask()
}

Task <|- - Task1
Task <|- - Task2
Task <|- - Task3
Task <|- - Task4

TaskQueue o- -> Data
TaskQueue o- -> Status
TaskQueue *- -> Task1
TaskQueue *- -> Task2
TaskQueue *- -> Task3
TaskQueue *- -> Task4

TaskQueue ..> Task:<<uses>>

Data -[hidden]down- Status
TaskQueue -[hidden]right- - Data
TaskQueue -[hidden]right- - Status
@enduml

PlantUML version 1.2021.00(Sun Jan 10 11:25:05 CET 2021)
(GPL source distribution)
Java Runtime: Java(TM) SE Runtime Environment
JVM: Java HotSpot(TM) 64-Bit Server VM
Default Encoding: Cp1252
Language: de
Country: DE
--></g></svg>