<?xml version="1.0" encoding="UTF-8" standalone="no"?><svg xmlns="http://www.w3.org/2000/svg" xmlns:xlink="http://www.w3.org/1999/xlink" contentStyleType="text/css" height="382px" preserveAspectRatio="none" style="width:1002px;height:382px;background:#FFFFFF;" version="1.1" viewBox="0 0 1002 382" width="1002px" zoomAndPan="magnify"><defs/><g><!--MD5=[d44b60fea78cf91c2416ca22aff93342]
class Containers2d--><g id="elem_Containers2d"><rect codeLine="5" fill="#F1F1F1" height="145.7813" id="Containers2d" rx="2.5" ry="2.5" style="stroke:#181818;stroke-width:0.5;" width="306" x="348" y="7"/><ellipse cx="450.25" cy="23" fill="#C2C2C2" rx="11" ry="11" style="stroke:#181818;stroke-width:1.0;"/><path d="M453.2188,28.6406 Q452.6406,28.9375 452,29.0781 Q451.3594,29.2344 450.6563,29.2344 Q448.1563,29.2344 446.8281,27.5938 Q445.5156,25.9375 445.5156,22.8125 Q445.5156,19.6875 446.8281,18.0313 Q448.1563,16.375 450.6563,16.375 Q451.3594,16.375 452,16.5313 Q452.6563,16.6875 453.2188,16.9844 L453.2188,19.7031 Q452.5938,19.125 452,18.8594 Q451.4063,18.5781 450.7813,18.5781 Q449.4375,18.5781 448.75,19.6563 Q448.0625,20.7188 448.0625,22.8125 Q448.0625,24.9063 448.75,25.9844 Q449.4375,27.0469 450.7813,27.0469 Q451.4063,27.0469 452,26.7813 Q452.5938,26.5 453.2188,25.9219 L453.2188,28.6406 Z " fill="#000000"/><text fill="#000000" font-family="sans-serif" font-size="14" lengthAdjust="spacing" textLength="93" x="470.75" y="27.8467">Containers2d</text><line style="stroke:#181818;stroke-width:0.5;" x1="349" x2="653" y1="39" y2="39"/><line style="stroke:#181818;stroke-width:0.5;" x1="349" x2="653" y1="47" y2="47"/><text fill="#000000" font-family="sans-serif" font-size="14" lengthAdjust="spacing" textLength="115" x="354" y="63.9951">+Containers2d()</text><text fill="#000000" font-family="sans-serif" font-size="14" lengthAdjust="spacing" textLength="127" x="354" y="80.292">+~Containers2d()</text><text fill="#000000" font-family="sans-serif" font-size="14" lengthAdjust="spacing" textLength="294" x="354" y="96.5889">+initializeContainerWithRandomNumbers()</text><text fill="#000000" font-family="sans-serif" font-size="14" lengthAdjust="spacing" textLength="145" x="354" y="112.8857">+processContainer()</text><text fill="#000000" font-family="sans-serif" font-size="14" lengthAdjust="spacing" textLength="200" x="354" y="129.1826">#processContainerByRows()</text><text fill="#000000" font-family="sans-serif" font-size="14" lengthAdjust="spacing" textLength="192" x="354" y="145.4795">#processContainerByCols()</text></g><!--MD5=[5b5eca0aa1020399cc2de851c60e22d8]
class Array1d--><g id="elem_Array1d"><rect codeLine="14" fill="#F1F1F1" height="162.0781" id="Array1d" rx="2.5" ry="2.5" style="stroke:#181818;stroke-width:0.5;" width="306" x="7" y="213"/><ellipse cx="129.75" cy="229" fill="#C2C2C2" rx="11" ry="11" style="stroke:#181818;stroke-width:1.0;"/><path d="M132.7188,234.6406 Q132.1406,234.9375 131.5,235.0781 Q130.8594,235.2344 130.1563,235.2344 Q127.6563,235.2344 126.3281,233.5938 Q125.0156,231.9375 125.0156,228.8125 Q125.0156,225.6875 126.3281,224.0313 Q127.6563,222.375 130.1563,222.375 Q130.8594,222.375 131.5,222.5313 Q132.1563,222.6875 132.7188,222.9844 L132.7188,225.7031 Q132.0938,225.125 131.5,224.8594 Q130.9063,224.5781 130.2813,224.5781 Q128.9375,224.5781 128.25,225.6563 Q127.5625,226.7188 127.5625,228.8125 Q127.5625,230.9063 128.25,231.9844 Q128.9375,233.0469 130.2813,233.0469 Q130.9063,233.0469 131.5,232.7813 Q132.0938,232.5 132.7188,231.9219 L132.7188,234.6406 Z " fill="#000000"/><text fill="#000000" font-family="sans-serif" font-size="14" lengthAdjust="spacing" textLength="52" x="150.25" y="233.8467">Array1d</text><line style="stroke:#181818;stroke-width:0.5;" x1="8" x2="312" y1="245" y2="245"/><line style="stroke:#181818;stroke-width:0.5;" x1="8" x2="312" y1="253" y2="253"/><text fill="#000000" font-family="sans-serif" font-size="14" lengthAdjust="spacing" textLength="74" x="13" y="269.9951">+Array1d()</text><text fill="#000000" font-family="sans-serif" font-size="14" lengthAdjust="spacing" textLength="86" x="13" y="286.292">+~Array1d()</text><text fill="#000000" font-family="sans-serif" font-size="14" lengthAdjust="spacing" textLength="294" x="13" y="302.5889">+initializeContainerWithRandomNumbers()</text><text fill="#000000" font-family="sans-serif" font-size="14" lengthAdjust="spacing" textLength="200" x="13" y="318.8857">#processContainerByRows()</text><text fill="#000000" font-family="sans-serif" font-size="14" lengthAdjust="spacing" textLength="192" x="13" y="335.1826">#processContainerByCols()</text><text fill="#000000" font-family="sans-serif" font-size="14" lengthAdjust="spacing" textLength="185" x="13" y="351.4795">#processArray1dByRows()</text><text fill="#000000" font-family="sans-serif" font-size="14" lengthAdjust="spacing" textLength="177" x="13" y="367.7764">#processArray1dByCols()</text></g><!--MD5=[8ce37bce0fd3548251fe67525564121e]
class Array2d--><g id="elem_Array2d"><rect codeLine="24" fill="#F1F1F1" height="162.0781" id="Array2d" rx="2.5" ry="2.5" style="stroke:#181818;stroke-width:0.5;" width="306" x="348" y="213"/><ellipse cx="470.75" cy="229" fill="#C2C2C2" rx="11" ry="11" style="stroke:#181818;stroke-width:1.0;"/><path d="M473.7188,234.6406 Q473.1406,234.9375 472.5,235.0781 Q471.8594,235.2344 471.1563,235.2344 Q468.6563,235.2344 467.3281,233.5938 Q466.0156,231.9375 466.0156,228.8125 Q466.0156,225.6875 467.3281,224.0313 Q468.6563,222.375 471.1563,222.375 Q471.8594,222.375 472.5,222.5313 Q473.1563,222.6875 473.7188,222.9844 L473.7188,225.7031 Q473.0938,225.125 472.5,224.8594 Q471.9063,224.5781 471.2813,224.5781 Q469.9375,224.5781 469.25,225.6563 Q468.5625,226.7188 468.5625,228.8125 Q468.5625,230.9063 469.25,231.9844 Q469.9375,233.0469 471.2813,233.0469 Q471.9063,233.0469 472.5,232.7813 Q473.0938,232.5 473.7188,231.9219 L473.7188,234.6406 Z " fill="#000000"/><text fill="#000000" font-family="sans-serif" font-size="14" lengthAdjust="spacing" textLength="52" x="491.25" y="233.8467">Array2d</text><line style="stroke:#181818;stroke-width:0.5;" x1="349" x2="653" y1="245" y2="245"/><line style="stroke:#181818;stroke-width:0.5;" x1="349" x2="653" y1="253" y2="253"/><text fill="#000000" font-family="sans-serif" font-size="14" lengthAdjust="spacing" textLength="264" x="354" y="269.9951">+Array2d(theWidth: int, theHeight: int)</text><text fill="#000000" font-family="sans-serif" font-size="14" lengthAdjust="spacing" textLength="86" x="354" y="286.292">+~Array2d()</text><text fill="#000000" font-family="sans-serif" font-size="14" lengthAdjust="spacing" textLength="294" x="354" y="302.5889">+initializeContainerWithRandomNumbers()</text><text fill="#000000" font-family="sans-serif" font-size="14" lengthAdjust="spacing" textLength="200" x="354" y="318.8857">#processContainerByRows()</text><text fill="#000000" font-family="sans-serif" font-size="14" lengthAdjust="spacing" textLength="192" x="354" y="335.1826">#processContainerByCols()</text><text fill="#000000" font-family="sans-serif" font-size="14" lengthAdjust="spacing" textLength="185" x="354" y="351.4795">#processArray2dByRows()</text><text fill="#000000" font-family="sans-serif" font-size="14" lengthAdjust="spacing" textLength="177" x="354" y="367.7764">#processArray2dByCols()</text></g><!--MD5=[afca945000e14fbdc0ba755aef1e3c62]
class Vector2d--><g id="elem_Vector2d"><rect codeLine="34" fill="#F1F1F1" height="162.0781" id="Vector2d" rx="2.5" ry="2.5" style="stroke:#181818;stroke-width:0.5;" width="306" x="689" y="213"/><ellipse cx="806.25" cy="229" fill="#C2C2C2" rx="11" ry="11" style="stroke:#181818;stroke-width:1.0;"/><path d="M809.2188,234.6406 Q808.6406,234.9375 808,235.0781 Q807.3594,235.2344 806.6563,235.2344 Q804.1563,235.2344 802.8281,233.5938 Q801.5156,231.9375 801.5156,228.8125 Q801.5156,225.6875 802.8281,224.0313 Q804.1563,222.375 806.6563,222.375 Q807.3594,222.375 808,222.5313 Q808.6563,222.6875 809.2188,222.9844 L809.2188,225.7031 Q808.5938,225.125 808,224.8594 Q807.4063,224.5781 806.7813,224.5781 Q805.4375,224.5781 804.75,225.6563 Q804.0625,226.7188 804.0625,228.8125 Q804.0625,230.9063 804.75,231.9844 Q805.4375,233.0469 806.7813,233.0469 Q807.4063,233.0469 808,232.7813 Q808.5938,232.5 809.2188,231.9219 L809.2188,234.6406 Z " fill="#000000"/><text fill="#000000" font-family="sans-serif" font-size="14" lengthAdjust="spacing" textLength="63" x="826.75" y="233.8467">Vector2d</text><line style="stroke:#181818;stroke-width:0.5;" x1="690" x2="994" y1="245" y2="245"/><line style="stroke:#181818;stroke-width:0.5;" x1="690" x2="994" y1="253" y2="253"/><text fill="#000000" font-family="sans-serif" font-size="14" lengthAdjust="spacing" textLength="85" x="695" y="269.9951">+Vector2d()</text><text fill="#000000" font-family="sans-serif" font-size="14" lengthAdjust="spacing" textLength="97" x="695" y="286.292">+~Vector2d()</text><text fill="#000000" font-family="sans-serif" font-size="14" lengthAdjust="spacing" textLength="294" x="695" y="302.5889">+initializeContainerWithRandomNumbers()</text><text fill="#000000" font-family="sans-serif" font-size="14" lengthAdjust="spacing" textLength="200" x="695" y="318.8857">#processContainerByRows()</text><text fill="#000000" font-family="sans-serif" font-size="14" lengthAdjust="spacing" textLength="192" x="695" y="335.1826">#processContainerByCols()</text><text fill="#000000" font-family="sans-serif" font-size="14" lengthAdjust="spacing" textLength="196" x="695" y="351.4795">#processVector2dByRows()</text><text fill="#000000" font-family="sans-serif" font-size="14" lengthAdjust="spacing" textLength="188" x="695" y="367.7764">#processVector2dByCols()</text></g><!--MD5=[172c3065053581634b5e833dd4657b61]
reverse link Containers2d to Array1d--><g id="link_Containers2d_Array1d"><path codeLine="44" d="M367.77,163.83 C341.79,179.98 314.6,196.88 288.77,212.94 " fill="none" id="Containers2d-backto-Array1d" style="stroke:#181818;stroke-width:1.0;"/><polygon fill="none" points="364.4,157.68,385.08,153.07,371.79,169.57,364.4,157.68" style="stroke:#181818;stroke-width:1.0;"/></g><!--MD5=[151ee3ff6060c6b4ff4441631b73dc52]
reverse link Containers2d to Array2d--><g id="link_Containers2d_Array2d"><path codeLine="45" d="M501,173.35 C501,186.47 501,199.89 501,212.76 " fill="none" id="Containers2d-backto-Array2d" style="stroke:#181818;stroke-width:1.0;"/><polygon fill="none" points="494,173.07,501,153.07,508,173.07,494,173.07" style="stroke:#181818;stroke-width:1.0;"/></g><!--MD5=[427b621bb7b9b81af23f82390af80519]
reverse link Containers2d to Vector2d--><g id="link_Containers2d_Vector2d"><path codeLine="46" d="M634.23,163.83 C660.21,179.98 687.4,196.88 713.23,212.94 " fill="none" id="Containers2d-backto-Vector2d" style="stroke:#181818;stroke-width:1.0;"/><polygon fill="none" points="630.21,169.57,616.92,153.07,637.6,157.68,630.21,169.57" style="stroke:#181818;stroke-width:1.0;"/></g><!--MD5=[3cbca08cc29725fdef31a02dab0b0390]
@startuml

skinparam monochrome true
skinparam classAttributeIconSize 0

class Containers2d {
  + Containers2d()
  + ~Containers2d()
  + initializeContainerWithRandomNumbers()
  + processContainer()
  # processContainerByRows()
  # processContainerByCols()
}

class Array1d {
  + Array1d()
  + ~Array1d()
  + initializeContainerWithRandomNumbers()
  # processContainerByRows()
  # processContainerByCols()
  # processArray1dByRows()
  # processArray1dByCols()
}

class Array2d {
  + Array2d(theWidth: int, theHeight: int)
  + ~Array2d()
  + initializeContainerWithRandomNumbers()
  # processContainerByRows()
  # processContainerByCols()
  # processArray2dByRows()
  # processArray2dByCols()
}

class Vector2d {
  + Vector2d()
  + ~Vector2d()
  + initializeContainerWithRandomNumbers()
  # processContainerByRows()
  # processContainerByCols()
  # processVector2dByRows()
  # processVector2dByCols()
}

Containers2d <|- - Array1d
Containers2d <|- - Array2d
Containers2d <|- - Vector2d
@enduml

PlantUML version 1.2022.7(Mon Aug 22 23:01:30 ALMT 2022)
(GPL source distribution)
Java Runtime: OpenJDK Runtime Environment
JVM: OpenJDK 64-Bit Server VM
Default Encoding: UTF-8
Language: en
Country: US
--></g></svg>