<?xml version="1.0" encoding="UTF-8" standalone="no"?><svg xmlns="http://www.w3.org/2000/svg" xmlns:xlink="http://www.w3.org/1999/xlink" contentStyleType="text/css" height="1578px" preserveAspectRatio="none" style="width:843px;height:1578px;background:#FFFFFF;" version="1.1" viewBox="0 0 843 1578" width="843px" zoomAndPan="magnify"><defs/><g><rect fill="#FFFFFF" height="1472.2031" style="stroke:#181818;stroke-width:1.0;" width="10" x="53.5" y="46.2969"/><rect fill="#FFFFFF" height="1255.2422" style="stroke:#181818;stroke-width:1.0;" width="10" x="349.5" y="140.8594"/><rect fill="#FFFFFF" height="1100.5469" style="stroke:#181818;stroke-width:1.0;" width="10" x="504.5" y="295.5547"/><rect fill="#FFFFFF" height="945.8516" style="stroke:#181818;stroke-width:1.0;" width="10" x="659.5" y="450.25"/><rect fill="none" height="1357.8047" style="stroke:#000000;stroke-width:1.5;" width="827.5" x="10" y="53.2969"/><rect fill="none" height="75.3984" style="stroke:#000000;stroke-width:1.5;" width="401.5" x="20" y="628.9141"/><rect fill="none" height="75.3984" style="stroke:#000000;stroke-width:1.5;" width="401.5" x="20" y="760.4453"/><rect fill="none" height="75.3984" style="stroke:#000000;stroke-width:1.5;" width="556.5" x="20" y="891.9766"/><rect fill="none" height="75.3984" style="stroke:#000000;stroke-width:1.5;" width="556.5" x="20" y="1023.5078"/><rect fill="none" height="75.3984" style="stroke:#000000;stroke-width:1.5;" width="717" x="20" y="1155.0391"/><rect fill="none" height="75.3984" style="stroke:#000000;stroke-width:1.5;" width="717" x="20" y="1286.5703"/><rect fill="none" height="59.2656" style="stroke:#000000;stroke-width:1.5;" width="220.5" x="20" y="1425.1016"/><line style="stroke:#181818;stroke-width:0.5;stroke-dasharray:5.0,5.0;" x1="58" x2="58" y1="36.2969" y2="1543.5"/><line style="stroke:#181818;stroke-width:0.5;stroke-dasharray:5.0,5.0;" x1="354.5" x2="354.5" y1="101.0781" y2="1543.5"/><line style="stroke:#181818;stroke-width:0.5;stroke-dasharray:5.0,5.0;" x1="509.5" x2="509.5" y1="255.7734" y2="1543.5"/><line style="stroke:#181818;stroke-width:0.5;stroke-dasharray:5.0,5.0;" x1="664" x2="664" y1="410.4688" y2="1543.5"/><rect fill="#E3E3E3" height="30.2969" rx="2.5" ry="2.5" style="stroke:#181818;stroke-width:0.5;" width="57" x="30" y="5"/><text fill="#000000" font-family="sans-serif" font-size="14" lengthAdjust="spacing" textLength="43" x="37" y="24.9951">main()</text><rect fill="#E3E3E3" height="30.2969" rx="2.5" ry="2.5" style="stroke:#181818;stroke-width:0.5;" width="57" x="30" y="1542.5"/><text fill="#000000" font-family="sans-serif" font-size="14" lengthAdjust="spacing" textLength="43" x="37" y="1562.4951">main()</text><rect fill="#E3E3E3" height="30.2969" rx="2.5" ry="2.5" style="stroke:#181818;stroke-width:0.5;" width="114" x="297.5" y="1542.5"/><text fill="#000000" font-family="sans-serif" font-size="14" lengthAdjust="spacing" textLength="100" x="304.5" y="1562.4951">Array1d:object</text><rect fill="#E3E3E3" height="30.2969" rx="2.5" ry="2.5" style="stroke:#181818;stroke-width:0.5;" width="114" x="452.5" y="1542.5"/><text fill="#000000" font-family="sans-serif" font-size="14" lengthAdjust="spacing" textLength="100" x="459.5" y="1562.4951">Array2d:object</text><rect fill="#E3E3E3" height="30.2969" rx="2.5" ry="2.5" style="stroke:#181818;stroke-width:0.5;" width="125" x="602" y="1542.5"/><text fill="#000000" font-family="sans-serif" font-size="14" lengthAdjust="spacing" textLength="111" x="609" y="1562.4951">Vector2d:object</text><rect fill="#FFFFFF" height="1472.2031" style="stroke:#181818;stroke-width:1.0;" width="10" x="53.5" y="46.2969"/><rect fill="#FFFFFF" height="1255.2422" style="stroke:#181818;stroke-width:1.0;" width="10" x="349.5" y="140.8594"/><rect fill="#FFFFFF" height="1100.5469" style="stroke:#181818;stroke-width:1.0;" width="10" x="504.5" y="295.5547"/><rect fill="#FFFFFF" height="945.8516" style="stroke:#181818;stroke-width:1.0;" width="10" x="659.5" y="450.25"/><path d="M10,53.2969 L87,53.2969 L87,60.4297 L77,70.4297 L10,70.4297 L10,53.2969 " fill="#EEEEEE" style="stroke:#000000;stroke-width:1.5;"/><rect fill="none" height="1357.8047" style="stroke:#000000;stroke-width:1.5;" width="827.5" x="10" y="53.2969"/><text fill="#000000" font-family="sans-serif" font-size="13" font-weight="bold" lengthAdjust="spacing" textLength="32" x="25" y="66.3638">loop</text><text fill="#000000" font-family="sans-serif" font-size="11" font-weight="bold" lengthAdjust="spacing" textLength="81" x="102" y="65.5073">[1000 times]</text><polygon fill="#181818" points="285.5,87.5625,295.5,91.5625,285.5,95.5625,289.5,91.5625" style="stroke:#181818;stroke-width:1.0;"/><line style="stroke:#181818;stroke-width:1.0;" x1="63.5" x2="291.5" y1="91.5625" y2="91.5625"/><text fill="#000000" font-family="sans-serif" font-size="13" lengthAdjust="spacing" textLength="169" x="70.5" y="86.4966">make_shared&lt;Array1d&gt;()</text><rect fill="#E3E3E3" height="30.2969" rx="2.5" ry="2.5" style="stroke:#181818;stroke-width:0.5;" width="114" x="297.5" y="70.4297"/><text fill="#000000" font-family="sans-serif" font-size="14" lengthAdjust="spacing" textLength="100" x="304.5" y="90.4248">Array1d:object</text><line style="stroke:#181818;stroke-width:1.0;" x1="354.5" x2="401.5" y1="127.8594" y2="127.8594"/><line style="stroke:#181818;stroke-width:1.0;" x1="401.5" x2="401.5" y1="127.8594" y2="140.8594"/><line style="stroke:#181818;stroke-width:1.0;" x1="360.5" x2="401.5" y1="140.8594" y2="140.8594"/><polygon fill="#181818" points="370.5,136.8594,360.5,140.8594,370.5,144.8594,366.5,140.8594" style="stroke:#181818;stroke-width:1.0;"/><text fill="#000000" font-family="sans-serif" font-size="13" lengthAdjust="spacing" textLength="141" x="366.5" y="122.7935">Array1d(width, height)</text><line style="stroke:#181818;stroke-width:1.0;" x1="64.5" x2="74.5" y1="174.9922" y2="170.9922"/><line style="stroke:#181818;stroke-width:1.0;" x1="64.5" x2="74.5" y1="174.9922" y2="178.9922"/><line style="stroke:#181818;stroke-width:1.0;" x1="63.5" x2="348.5" y1="174.9922" y2="174.9922"/><text fill="#000000" font-family="sans-serif" font-size="13" lengthAdjust="spacing" textLength="168" x="80.5" y="169.9263">shared_pointer&lt;Array1d&gt;</text><line style="stroke:#181818;stroke-width:1.0;" x1="63.5" x2="105.5" y1="204.125" y2="204.125"/><line style="stroke:#181818;stroke-width:1.0;" x1="105.5" x2="105.5" y1="204.125" y2="217.125"/><line style="stroke:#181818;stroke-width:1.0;" x1="64.5" x2="105.5" y1="217.125" y2="217.125"/><polygon fill="#181818" points="74.5,213.125,64.5,217.125,74.5,221.125,70.5,217.125" style="stroke:#181818;stroke-width:1.0;"/><text fill="#000000" font-family="sans-serif" font-size="13" lengthAdjust="spacing" textLength="102" x="70.5" y="199.0591">emplace_back()</text><polygon fill="#181818" points="440.5,242.2578,450.5,246.2578,440.5,250.2578,444.5,246.2578" style="stroke:#181818;stroke-width:1.0;"/><line style="stroke:#181818;stroke-width:1.0;" x1="63.5" x2="446.5" y1="246.2578" y2="246.2578"/><text fill="#000000" font-family="sans-serif" font-size="13" lengthAdjust="spacing" textLength="169" x="70.5" y="241.1919">make_shared&lt;Array2d&gt;()</text><rect fill="#E3E3E3" height="30.2969" rx="2.5" ry="2.5" style="stroke:#181818;stroke-width:0.5;" width="114" x="452.5" y="225.125"/><text fill="#000000" font-family="sans-serif" font-size="14" lengthAdjust="spacing" textLength="100" x="459.5" y="245.1201">Array2d:object</text><line style="stroke:#181818;stroke-width:1.0;" x1="509.5" x2="556.5" y1="282.5547" y2="282.5547"/><line style="stroke:#181818;stroke-width:1.0;" x1="556.5" x2="556.5" y1="282.5547" y2="295.5547"/><line style="stroke:#181818;stroke-width:1.0;" x1="515.5" x2="556.5" y1="295.5547" y2="295.5547"/><polygon fill="#181818" points="525.5,291.5547,515.5,295.5547,525.5,299.5547,521.5,295.5547" style="stroke:#181818;stroke-width:1.0;"/><text fill="#000000" font-family="sans-serif" font-size="13" lengthAdjust="spacing" textLength="141" x="521.5" y="277.4888">Array2d(width, height)</text><line style="stroke:#181818;stroke-width:1.0;" x1="64.5" x2="74.5" y1="329.6875" y2="325.6875"/><line style="stroke:#181818;stroke-width:1.0;" x1="64.5" x2="74.5" y1="329.6875" y2="333.6875"/><line style="stroke:#181818;stroke-width:1.0;" x1="63.5" x2="503.5" y1="329.6875" y2="329.6875"/><text fill="#000000" font-family="sans-serif" font-size="13" lengthAdjust="spacing" textLength="168" x="80.5" y="324.6216">shared_pointer&lt;Array2d&gt;</text><line style="stroke:#181818;stroke-width:1.0;" x1="63.5" x2="105.5" y1="358.8203" y2="358.8203"/><line style="stroke:#181818;stroke-width:1.0;" x1="105.5" x2="105.5" y1="358.8203" y2="371.8203"/><line style="stroke:#181818;stroke-width:1.0;" x1="64.5" x2="105.5" y1="371.8203" y2="371.8203"/><polygon fill="#181818" points="74.5,367.8203,64.5,371.8203,74.5,375.8203,70.5,371.8203" style="stroke:#181818;stroke-width:1.0;"/><text fill="#000000" font-family="sans-serif" font-size="13" lengthAdjust="spacing" textLength="102" x="70.5" y="353.7544">emplace_back()</text><polygon fill="#181818" points="590,396.9531,600,400.9531,590,404.9531,594,400.9531" style="stroke:#181818;stroke-width:1.0;"/><line style="stroke:#181818;stroke-width:1.0;" x1="63.5" x2="596" y1="400.9531" y2="400.9531"/><text fill="#000000" font-family="sans-serif" font-size="13" lengthAdjust="spacing" textLength="177" x="70.5" y="395.8872">make_shared&lt;Vector2d&gt;()</text><rect fill="#E3E3E3" height="30.2969" rx="2.5" ry="2.5" style="stroke:#181818;stroke-width:0.5;" width="125" x="602" y="379.8203"/><text fill="#000000" font-family="sans-serif" font-size="14" lengthAdjust="spacing" textLength="111" x="609" y="399.8154">Vector2d:object</text><line style="stroke:#181818;stroke-width:1.0;" x1="664.5" x2="711.5" y1="437.25" y2="437.25"/><line style="stroke:#181818;stroke-width:1.0;" x1="711.5" x2="711.5" y1="437.25" y2="450.25"/><line style="stroke:#181818;stroke-width:1.0;" x1="670.5" x2="711.5" y1="450.25" y2="450.25"/><polygon fill="#181818" points="680.5,446.25,670.5,450.25,680.5,454.25,676.5,450.25" style="stroke:#181818;stroke-width:1.0;"/><text fill="#000000" font-family="sans-serif" font-size="13" lengthAdjust="spacing" textLength="149" x="676.5" y="432.1841">Vector2d(width, height)</text><line style="stroke:#181818;stroke-width:1.0;" x1="64.5" x2="74.5" y1="484.3828" y2="480.3828"/><line style="stroke:#181818;stroke-width:1.0;" x1="64.5" x2="74.5" y1="484.3828" y2="488.3828"/><line style="stroke:#181818;stroke-width:1.0;" x1="63.5" x2="658.5" y1="484.3828" y2="484.3828"/><text fill="#000000" font-family="sans-serif" font-size="13" lengthAdjust="spacing" textLength="176" x="80.5" y="479.3169">shared_pointer&lt;Vector2d&gt;</text><line style="stroke:#181818;stroke-width:1.0;" x1="63.5" x2="105.5" y1="513.5156" y2="513.5156"/><line style="stroke:#181818;stroke-width:1.0;" x1="105.5" x2="105.5" y1="513.5156" y2="526.5156"/><line style="stroke:#181818;stroke-width:1.0;" x1="64.5" x2="105.5" y1="526.5156" y2="526.5156"/><polygon fill="#181818" points="74.5,522.5156,64.5,526.5156,74.5,530.5156,70.5,526.5156" style="stroke:#181818;stroke-width:1.0;"/><text fill="#000000" font-family="sans-serif" font-size="13" lengthAdjust="spacing" textLength="102" x="70.5" y="508.4497">emplace_back()</text><polygon fill="#181818" points="337.5,551.6484,347.5,555.6484,337.5,559.6484,341.5,555.6484" style="stroke:#181818;stroke-width:1.0;"/><line style="stroke:#181818;stroke-width:1.0;" x1="63.5" x2="343.5" y1="555.6484" y2="555.6484"/><text fill="#000000" font-family="sans-serif" font-size="13" lengthAdjust="spacing" textLength="262" x="70.5" y="550.5825">initializeContainerWithRandomNumbers()</text><polygon fill="#181818" points="492.5,580.7813,502.5,584.7813,492.5,588.7813,496.5,584.7813" style="stroke:#181818;stroke-width:1.0;"/><line style="stroke:#181818;stroke-width:1.0;" x1="63.5" x2="498.5" y1="584.7813" y2="584.7813"/><text fill="#000000" font-family="sans-serif" font-size="13" lengthAdjust="spacing" textLength="262" x="70.5" y="579.7153">initializeContainerWithRandomNumbers()</text><polygon fill="#181818" points="647.5,609.9141,657.5,613.9141,647.5,617.9141,651.5,613.9141" style="stroke:#181818;stroke-width:1.0;"/><line style="stroke:#181818;stroke-width:1.0;" x1="63.5" x2="653.5" y1="613.9141" y2="613.9141"/><text fill="#000000" font-family="sans-serif" font-size="13" lengthAdjust="spacing" textLength="262" x="70.5" y="608.8481">initializeContainerWithRandomNumbers()</text><path d="M20,628.9141 L84,628.9141 L84,636.0469 L74,646.0469 L20,646.0469 L20,628.9141 " fill="#EEEEEE" style="stroke:#000000;stroke-width:1.5;"/><rect fill="none" height="75.3984" style="stroke:#000000;stroke-width:1.5;" width="401.5" x="20" y="628.9141"/><text fill="#000000" font-family="sans-serif" font-size="13" font-weight="bold" lengthAdjust="spacing" textLength="19" x="35" y="641.981">alt</text><text fill="#000000" font-family="sans-serif" font-size="11" font-weight="bold" lengthAdjust="spacing" textLength="111" x="99" y="641.1245">[byRows == true]</text><polygon fill="#181818" points="337.5,663.1797,347.5,667.1797,337.5,671.1797,341.5,667.1797" style="stroke:#181818;stroke-width:1.0;"/><line style="stroke:#181818;stroke-width:1.0;" x1="63.5" x2="343.5" y1="667.1797" y2="667.1797"/><text fill="#000000" font-family="sans-serif" font-size="13" lengthAdjust="spacing" textLength="169" x="70.5" y="662.1138">processContainer(byRows)</text><line style="stroke:#181818;stroke-width:1.0;" x1="64.5" x2="74.5" y1="696.3125" y2="692.3125"/><line style="stroke:#181818;stroke-width:1.0;" x1="64.5" x2="74.5" y1="696.3125" y2="700.3125"/><line style="stroke:#181818;stroke-width:1.0;" x1="63.5" x2="348.5" y1="696.3125" y2="696.3125"/><text fill="#000000" font-family="sans-serif" font-size="13" lengthAdjust="spacing" textLength="203" x="80.5" y="691.2466">execution time in microseconds</text><line style="stroke:#181818;stroke-width:1.0;" x1="63.5" x2="105.5" y1="732.4453" y2="732.4453"/><line style="stroke:#181818;stroke-width:1.0;" x1="105.5" x2="105.5" y1="732.4453" y2="745.4453"/><line style="stroke:#181818;stroke-width:1.0;" x1="64.5" x2="105.5" y1="745.4453" y2="745.4453"/><polygon fill="#181818" points="74.5,741.4453,64.5,745.4453,74.5,749.4453,70.5,745.4453" style="stroke:#181818;stroke-width:1.0;"/><text fill="#000000" font-family="sans-serif" font-size="13" lengthAdjust="spacing" textLength="205" x="70.5" y="727.3794">emplace_back( execution time )</text><path d="M20,760.4453 L84,760.4453 L84,767.5781 L74,777.5781 L20,777.5781 L20,760.4453 " fill="#EEEEEE" style="stroke:#000000;stroke-width:1.5;"/><rect fill="none" height="75.3984" style="stroke:#000000;stroke-width:1.5;" width="401.5" x="20" y="760.4453"/><text fill="#000000" font-family="sans-serif" font-size="13" font-weight="bold" lengthAdjust="spacing" textLength="19" x="35" y="773.5122">alt</text><text fill="#000000" font-family="sans-serif" font-size="11" font-weight="bold" lengthAdjust="spacing" textLength="117" x="99" y="772.6558">[byRows == false]</text><polygon fill="#181818" points="337.5,794.7109,347.5,798.7109,337.5,802.7109,341.5,798.7109" style="stroke:#181818;stroke-width:1.0;"/><line style="stroke:#181818;stroke-width:1.0;" x1="63.5" x2="343.5" y1="798.7109" y2="798.7109"/><text fill="#000000" font-family="sans-serif" font-size="13" lengthAdjust="spacing" textLength="169" x="70.5" y="793.645">processContainer(byRows)</text><line style="stroke:#181818;stroke-width:1.0;" x1="64.5" x2="74.5" y1="827.8438" y2="823.8438"/><line style="stroke:#181818;stroke-width:1.0;" x1="64.5" x2="74.5" y1="827.8438" y2="831.8438"/><line style="stroke:#181818;stroke-width:1.0;" x1="63.5" x2="348.5" y1="827.8438" y2="827.8438"/><text fill="#000000" font-family="sans-serif" font-size="13" lengthAdjust="spacing" textLength="203" x="80.5" y="822.7778">execution time in microseconds</text><line style="stroke:#181818;stroke-width:1.0;" x1="63.5" x2="105.5" y1="863.9766" y2="863.9766"/><line style="stroke:#181818;stroke-width:1.0;" x1="105.5" x2="105.5" y1="863.9766" y2="876.9766"/><line style="stroke:#181818;stroke-width:1.0;" x1="64.5" x2="105.5" y1="876.9766" y2="876.9766"/><polygon fill="#181818" points="74.5,872.9766,64.5,876.9766,74.5,880.9766,70.5,876.9766" style="stroke:#181818;stroke-width:1.0;"/><text fill="#000000" font-family="sans-serif" font-size="13" lengthAdjust="spacing" textLength="205" x="70.5" y="858.9106">emplace_back( execution time )</text><path d="M20,891.9766 L84,891.9766 L84,899.1094 L74,909.1094 L20,909.1094 L20,891.9766 " fill="#EEEEEE" style="stroke:#000000;stroke-width:1.5;"/><rect fill="none" height="75.3984" style="stroke:#000000;stroke-width:1.5;" width="556.5" x="20" y="891.9766"/><text fill="#000000" font-family="sans-serif" font-size="13" font-weight="bold" lengthAdjust="spacing" textLength="19" x="35" y="905.0435">alt</text><text fill="#000000" font-family="sans-serif" font-size="11" font-weight="bold" lengthAdjust="spacing" textLength="111" x="99" y="904.187">[byRows == true]</text><polygon fill="#181818" points="492.5,926.2422,502.5,930.2422,492.5,934.2422,496.5,930.2422" style="stroke:#181818;stroke-width:1.0;"/><line style="stroke:#181818;stroke-width:1.0;" x1="63.5" x2="498.5" y1="930.2422" y2="930.2422"/><text fill="#000000" font-family="sans-serif" font-size="13" lengthAdjust="spacing" textLength="169" x="70.5" y="925.1763">processContainer(byRows)</text><line style="stroke:#181818;stroke-width:1.0;" x1="64.5" x2="74.5" y1="959.375" y2="955.375"/><line style="stroke:#181818;stroke-width:1.0;" x1="64.5" x2="74.5" y1="959.375" y2="963.375"/><line style="stroke:#181818;stroke-width:1.0;" x1="63.5" x2="503.5" y1="959.375" y2="959.375"/><text fill="#000000" font-family="sans-serif" font-size="13" lengthAdjust="spacing" textLength="203" x="80.5" y="954.3091">execution time in microseconds</text><line style="stroke:#181818;stroke-width:1.0;" x1="63.5" x2="105.5" y1="995.5078" y2="995.5078"/><line style="stroke:#181818;stroke-width:1.0;" x1="105.5" x2="105.5" y1="995.5078" y2="1008.5078"/><line style="stroke:#181818;stroke-width:1.0;" x1="64.5" x2="105.5" y1="1008.5078" y2="1008.5078"/><polygon fill="#181818" points="74.5,1004.5078,64.5,1008.5078,74.5,1012.5078,70.5,1008.5078" style="stroke:#181818;stroke-width:1.0;"/><text fill="#000000" font-family="sans-serif" font-size="13" lengthAdjust="spacing" textLength="205" x="70.5" y="990.4419">emplace_back( execution time )</text><path d="M20,1023.5078 L84,1023.5078 L84,1030.6406 L74,1040.6406 L20,1040.6406 L20,1023.5078 " fill="#EEEEEE" style="stroke:#000000;stroke-width:1.5;"/><rect fill="none" height="75.3984" style="stroke:#000000;stroke-width:1.5;" width="556.5" x="20" y="1023.5078"/><text fill="#000000" font-family="sans-serif" font-size="13" font-weight="bold" lengthAdjust="spacing" textLength="19" x="35" y="1036.5747">alt</text><text fill="#000000" font-family="sans-serif" font-size="11" font-weight="bold" lengthAdjust="spacing" textLength="117" x="99" y="1035.7183">[byRows == false]</text><polygon fill="#181818" points="492.5,1057.7734,502.5,1061.7734,492.5,1065.7734,496.5,1061.7734" style="stroke:#181818;stroke-width:1.0;"/><line style="stroke:#181818;stroke-width:1.0;" x1="63.5" x2="498.5" y1="1061.7734" y2="1061.7734"/><text fill="#000000" font-family="sans-serif" font-size="13" lengthAdjust="spacing" textLength="169" x="70.5" y="1056.7075">processContainer(byRows)</text><line style="stroke:#181818;stroke-width:1.0;" x1="64.5" x2="74.5" y1="1090.9063" y2="1086.9063"/><line style="stroke:#181818;stroke-width:1.0;" x1="64.5" x2="74.5" y1="1090.9063" y2="1094.9063"/><line style="stroke:#181818;stroke-width:1.0;" x1="63.5" x2="503.5" y1="1090.9063" y2="1090.9063"/><text fill="#000000" font-family="sans-serif" font-size="13" lengthAdjust="spacing" textLength="203" x="80.5" y="1085.8403">execution time in microseconds</text><line style="stroke:#181818;stroke-width:1.0;" x1="63.5" x2="105.5" y1="1127.0391" y2="1127.0391"/><line style="stroke:#181818;stroke-width:1.0;" x1="105.5" x2="105.5" y1="1127.0391" y2="1140.0391"/><line style="stroke:#181818;stroke-width:1.0;" x1="64.5" x2="105.5" y1="1140.0391" y2="1140.0391"/><polygon fill="#181818" points="74.5,1136.0391,64.5,1140.0391,74.5,1144.0391,70.5,1140.0391" style="stroke:#181818;stroke-width:1.0;"/><text fill="#000000" font-family="sans-serif" font-size="13" lengthAdjust="spacing" textLength="205" x="70.5" y="1121.9731">emplace_back( execution time )</text><path d="M20,1155.0391 L84,1155.0391 L84,1162.1719 L74,1172.1719 L20,1172.1719 L20,1155.0391 " fill="#EEEEEE" style="stroke:#000000;stroke-width:1.5;"/><rect fill="none" height="75.3984" style="stroke:#000000;stroke-width:1.5;" width="717" x="20" y="1155.0391"/><text fill="#000000" font-family="sans-serif" font-size="13" font-weight="bold" lengthAdjust="spacing" textLength="19" x="35" y="1168.106">alt</text><text fill="#000000" font-family="sans-serif" font-size="11" font-weight="bold" lengthAdjust="spacing" textLength="111" x="99" y="1167.2495">[byRows == true]</text><polygon fill="#181818" points="647.5,1189.3047,657.5,1193.3047,647.5,1197.3047,651.5,1193.3047" style="stroke:#181818;stroke-width:1.0;"/><line style="stroke:#181818;stroke-width:1.0;" x1="63.5" x2="653.5" y1="1193.3047" y2="1193.3047"/><text fill="#000000" font-family="sans-serif" font-size="13" lengthAdjust="spacing" textLength="169" x="70.5" y="1188.2388">processContainer(byRows)</text><line style="stroke:#181818;stroke-width:1.0;" x1="64.5" x2="74.5" y1="1222.4375" y2="1218.4375"/><line style="stroke:#181818;stroke-width:1.0;" x1="64.5" x2="74.5" y1="1222.4375" y2="1226.4375"/><line style="stroke:#181818;stroke-width:1.0;" x1="63.5" x2="658.5" y1="1222.4375" y2="1222.4375"/><text fill="#000000" font-family="sans-serif" font-size="13" lengthAdjust="spacing" textLength="203" x="80.5" y="1217.3716">execution time in microseconds</text><line style="stroke:#181818;stroke-width:1.0;" x1="63.5" x2="105.5" y1="1258.5703" y2="1258.5703"/><line style="stroke:#181818;stroke-width:1.0;" x1="105.5" x2="105.5" y1="1258.5703" y2="1271.5703"/><line style="stroke:#181818;stroke-width:1.0;" x1="64.5" x2="105.5" y1="1271.5703" y2="1271.5703"/><polygon fill="#181818" points="74.5,1267.5703,64.5,1271.5703,74.5,1275.5703,70.5,1271.5703" style="stroke:#181818;stroke-width:1.0;"/><text fill="#000000" font-family="sans-serif" font-size="13" lengthAdjust="spacing" textLength="205" x="70.5" y="1253.5044">emplace_back( execution time )</text><path d="M20,1286.5703 L84,1286.5703 L84,1293.7031 L74,1303.7031 L20,1303.7031 L20,1286.5703 " fill="#EEEEEE" style="stroke:#000000;stroke-width:1.5;"/><rect fill="none" height="75.3984" style="stroke:#000000;stroke-width:1.5;" width="717" x="20" y="1286.5703"/><text fill="#000000" font-family="sans-serif" font-size="13" font-weight="bold" lengthAdjust="spacing" textLength="19" x="35" y="1299.6372">alt</text><text fill="#000000" font-family="sans-serif" font-size="11" font-weight="bold" lengthAdjust="spacing" textLength="117" x="99" y="1298.7808">[byRows == false]</text><polygon fill="#181818" points="647.5,1320.8359,657.5,1324.8359,647.5,1328.8359,651.5,1324.8359" style="stroke:#181818;stroke-width:1.0;"/><line style="stroke:#181818;stroke-width:1.0;" x1="63.5" x2="653.5" y1="1324.8359" y2="1324.8359"/><text fill="#000000" font-family="sans-serif" font-size="13" lengthAdjust="spacing" textLength="169" x="70.5" y="1319.77">processContainer(byRows)</text><line style="stroke:#181818;stroke-width:1.0;" x1="64.5" x2="74.5" y1="1353.9688" y2="1349.9688"/><line style="stroke:#181818;stroke-width:1.0;" x1="64.5" x2="74.5" y1="1353.9688" y2="1357.9688"/><line style="stroke:#181818;stroke-width:1.0;" x1="63.5" x2="658.5" y1="1353.9688" y2="1353.9688"/><text fill="#000000" font-family="sans-serif" font-size="13" lengthAdjust="spacing" textLength="203" x="80.5" y="1348.9028">execution time in microseconds</text><line style="stroke:#181818;stroke-width:1.0;" x1="63.5" x2="105.5" y1="1395.1016" y2="1395.1016"/><line style="stroke:#181818;stroke-width:1.0;" x1="105.5" x2="105.5" y1="1395.1016" y2="1408.1016"/><line style="stroke:#181818;stroke-width:1.0;" x1="58.5" x2="105.5" y1="1408.1016" y2="1408.1016"/><polygon fill="#181818" points="68.5,1404.1016,58.5,1408.1016,68.5,1412.1016,64.5,1408.1016" style="stroke:#181818;stroke-width:1.0;"/><text fill="#000000" font-family="sans-serif" font-size="13" lengthAdjust="spacing" textLength="205" x="70.5" y="1390.0356">emplace_back( execution time )</text><path d="M20,1425.1016 L97,1425.1016 L97,1432.2344 L87,1442.2344 L20,1442.2344 L20,1425.1016 " fill="#EEEEEE" style="stroke:#000000;stroke-width:1.5;"/><rect fill="none" height="59.2656" style="stroke:#000000;stroke-width:1.5;" width="220.5" x="20" y="1425.1016"/><text fill="#000000" font-family="sans-serif" font-size="13" font-weight="bold" lengthAdjust="spacing" textLength="32" x="35" y="1438.1685">loop</text><text fill="#000000" font-family="sans-serif" font-size="11" font-weight="bold" lengthAdjust="spacing" textLength="81" x="112" y="1437.312">[1000 times]</text><line style="stroke:#181818;stroke-width:1.0;" x1="63.5" x2="105.5" y1="1463.3672" y2="1463.3672"/><line style="stroke:#181818;stroke-width:1.0;" x1="105.5" x2="105.5" y1="1463.3672" y2="1476.3672"/><line style="stroke:#181818;stroke-width:1.0;" x1="64.5" x2="105.5" y1="1476.3672" y2="1476.3672"/><polygon fill="#181818" points="74.5,1472.3672,64.5,1476.3672,74.5,1480.3672,70.5,1476.3672" style="stroke:#181818;stroke-width:1.0;"/><text fill="#000000" font-family="sans-serif" font-size="13" lengthAdjust="spacing" textLength="158" x="70.5" y="1458.3013">average execution times</text><line style="stroke:#181818;stroke-width:1.0;" x1="63.5" x2="105.5" y1="1517.5" y2="1517.5"/><line style="stroke:#181818;stroke-width:1.0;" x1="105.5" x2="105.5" y1="1517.5" y2="1530.5"/><line style="stroke:#181818;stroke-width:1.0;" x1="58.5" x2="105.5" y1="1530.5" y2="1530.5"/><polygon fill="#181818" points="68.5,1526.5,58.5,1530.5,68.5,1534.5,64.5,1530.5" style="stroke:#181818;stroke-width:1.0;"/><text fill="#000000" font-family="sans-serif" font-size="13" lengthAdjust="spacing" textLength="199" x="70.5" y="1512.4341">print averaged execution times</text><!--MD5=[87cf2e0c0c49b496c36f7f1f9adb5c87]
@startuml
skinparam monochrome true
skinparam classAttributeIconSize 0

participant "main()" as A
participant "Array1d:object" as B
participant "Array2d:object" as C
participant "Vector2d:object" as D
activate A
loop 1000 times

A -> B **: make_shared<Array1d>()

B -> B : Array1d(width, height)
activate B
B ->> A : shared_pointer<Array1d>
A -> A : emplace_back()

A -> C **: make_shared<Array2d>()

C -> C : Array2d(width, height)
activate C
C ->> A : shared_pointer<Array2d>
A -> A : emplace_back()

A -> D **: make_shared<Vector2d>()

D -> D : Vector2d(width, height)
activate D
D ->> A : shared_pointer<Vector2d>
A -> A : emplace_back()

A -> B : initializeContainerWithRandomNumbers()
A -> C : initializeContainerWithRandomNumbers()
A -> D : initializeContainerWithRandomNumbers()

alt byRows == true
A -> B : processContainer(byRows)
B ->> A: execution time in microseconds
end
A -> A : emplace_back( execution time )
alt byRows == false
A -> B : processContainer(byRows)
B ->> A: execution time in microseconds
end
A -> A : emplace_back( execution time )

alt byRows == true
A -> C : processContainer(byRows)
C ->> A: execution time in microseconds
end
A -> A : emplace_back( execution time )
alt byRows == false
A -> C : processContainer(byRows)
C ->> A: execution time in microseconds
end
A -> A : emplace_back( execution time )

alt byRows == true
A -> D : processContainer(byRows)
D ->> A: execution time in microseconds
end
A -> A : emplace_back( execution time )
alt byRows == false
A -> D : processContainer(byRows)
D ->> A: execution time in microseconds
end
A -> A : emplace_back( execution time )
deactivate B
deactivate C
deactivate D
end

loop 1000 times
A -> A : average execution times
end
A -> A : print averaged execution times
deactivate A
@enduml

PlantUML version 1.2022.7(Mon Aug 22 23:01:30 ALMT 2022)
(GPL source distribution)
Java Runtime: OpenJDK Runtime Environment
JVM: OpenJDK 64-Bit Server VM
Default Encoding: UTF-8
Language: en
Country: US
--></g></svg>