<?xml version="1.0" encoding="UTF-8" standalone="no"?><svg xmlns="http://www.w3.org/2000/svg" xmlns:xlink="http://www.w3.org/1999/xlink" contentStyleType="text/css" height="800px" preserveAspectRatio="none" style="width:966px;height:800px;background:#FFFFFF;" version="1.1" viewBox="0 0 966 800" width="966px" zoomAndPan="magnify"><defs/><g><rect fill="#FFFFFF" height="89.7031" style="stroke:#181818;stroke-width:1.0;" width="10" x="718.5" y="656.6563"/><rect fill="none" height="62.7031" style="stroke:#000000;stroke-width:1.5;" width="821" x="10" y="487.8984"/><rect fill="none" height="62.7031" style="stroke:#000000;stroke-width:1.5;" width="821" x="10" y="564.6016"/><rect fill="none" height="61.7031" style="stroke:#000000;stroke-width:1.5;" width="239" x="616" y="671.6563"/><line style="stroke:#181818;stroke-width:0.5;stroke-dasharray:5.0,5.0;" x1="47" x2="47" y1="37.6094" y2="764.3594"/><line style="stroke:#181818;stroke-width:0.5;stroke-dasharray:5.0,5.0;" x1="289" x2="289" y1="78.9141" y2="764.3594"/><line style="stroke:#181818;stroke-width:0.5;stroke-dasharray:5.0,5.0;" x1="502" x2="502" y1="121.5234" y2="764.3594"/><line style="stroke:#181818;stroke-width:0.5;stroke-dasharray:5.0,5.0;" x1="723" x2="723" y1="164.1328" y2="764.3594"/><rect fill="#E3E3E3" height="31.6094" rx="2.5" ry="2.5" style="stroke:#181818;stroke-width:0.5;" width="54" x="20" y="5"/><text fill="#000000" font-family="sans-serif" font-size="14" lengthAdjust="spacing" textLength="40" x="27" y="26.5332">main()</text><rect fill="#E3E3E3" height="31.6094" rx="2.5" ry="2.5" style="stroke:#181818;stroke-width:0.5;" width="54" x="20" y="763.3594"/><text fill="#000000" font-family="sans-serif" font-size="14" lengthAdjust="spacing" textLength="40" x="27" y="784.8926">main()</text><rect fill="#E3E3E3" height="31.6094" rx="2.5" ry="2.5" style="stroke:#181818;stroke-width:0.5;" width="178" x="200" y="763.3594"/><text fill="#000000" font-family="sans-serif" font-size="14" lengthAdjust="spacing" textLength="164" x="207" y="784.8926">shared_ptr&lt;Data&gt;:spData</text><rect fill="#E3E3E3" height="31.6094" rx="2.5" ry="2.5" style="stroke:#181818;stroke-width:0.5;" width="228" x="388" y="763.3594"/><text fill="#000000" font-family="sans-serif" font-size="14" lengthAdjust="spacing" textLength="214" x="395" y="784.8926">shared_ptr&lt;Status&gt;:spExecStatus</text><rect fill="#E3E3E3" height="31.6094" rx="2.5" ry="2.5" style="stroke:#181818;stroke-width:0.5;" width="195" x="626" y="763.3594"/><text fill="#000000" font-family="sans-serif" font-size="14" lengthAdjust="spacing" textLength="181" x="633" y="784.8926">unique_ptr&lt;TaskQue&gt;:spTQ</text><rect fill="#FFFFFF" height="89.7031" style="stroke:#181818;stroke-width:1.0;" width="10" x="718.5" y="656.6563"/><polygon fill="#181818" points="188,65.9609,198,69.9609,188,73.9609,192,69.9609" style="stroke:#181818;stroke-width:1.0;"/><line style="stroke:#181818;stroke-width:1.0;" x1="47" x2="194" y1="69.9609" y2="69.9609"/><text fill="#000000" font-family="sans-serif" font-size="13" lengthAdjust="spacing" textLength="129" x="54" y="65.1045">make_shared&lt;Data&gt;()</text><rect fill="#E3E3E3" height="31.6094" rx="2.5" ry="2.5" style="stroke:#181818;stroke-width:0.5;" width="178" x="200" y="47.6094"/><text fill="#000000" font-family="sans-serif" font-size="14" lengthAdjust="spacing" textLength="164" x="207" y="69.1426">shared_ptr&lt;Data&gt;:spData</text><polygon fill="#181818" points="376,108.5703,386,112.5703,376,116.5703,380,112.5703" style="stroke:#181818;stroke-width:1.0;"/><line style="stroke:#181818;stroke-width:1.0;" x1="47" x2="382" y1="112.5703" y2="112.5703"/><text fill="#000000" font-family="sans-serif" font-size="13" lengthAdjust="spacing" textLength="140" x="54" y="107.7139">make_shared&lt;Status&gt;()</text><rect fill="#E3E3E3" height="31.6094" rx="2.5" ry="2.5" style="stroke:#181818;stroke-width:0.5;" width="228" x="388" y="90.2188"/><text fill="#000000" font-family="sans-serif" font-size="14" lengthAdjust="spacing" textLength="214" x="395" y="111.752">shared_ptr&lt;Status&gt;:spExecStatus</text><polygon fill="#181818" points="614,151.1797,624,155.1797,614,159.1797,618,155.1797" style="stroke:#181818;stroke-width:1.0;"/><line style="stroke:#181818;stroke-width:1.0;" x1="47" x2="620" y1="155.1797" y2="155.1797"/><text fill="#000000" font-family="sans-serif" font-size="13" lengthAdjust="spacing" textLength="284" x="54" y="150.3232">make_unique&lt;TaskQue&gt;(spData, spExecStatus)</text><rect fill="#E3E3E3" height="31.6094" rx="2.5" ry="2.5" style="stroke:#181818;stroke-width:0.5;" width="195" x="626" y="132.8281"/><text fill="#000000" font-family="sans-serif" font-size="14" lengthAdjust="spacing" textLength="181" x="633" y="154.3613">unique_ptr&lt;TaskQue&gt;:spTQ</text><line style="stroke:#181818;stroke-width:1.0;" x1="723.5" x2="765.5" y1="197.7891" y2="197.7891"/><line style="stroke:#181818;stroke-width:1.0;" x1="765.5" x2="765.5" y1="197.7891" y2="210.7891"/><line style="stroke:#181818;stroke-width:1.0;" x1="724.5" x2="765.5" y1="210.7891" y2="210.7891"/><polygon fill="#181818" points="734.5,206.7891,724.5,210.7891,734.5,214.7891,730.5,210.7891" style="stroke:#181818;stroke-width:1.0;"/><text fill="#000000" font-family="sans-serif" font-size="13" lengthAdjust="spacing" textLength="60" x="730.5" y="192.9326">initTasks()</text><line style="stroke:#181818;stroke-width:1.0;" x1="723.5" x2="765.5" y1="241.1406" y2="241.1406"/><line style="stroke:#181818;stroke-width:1.0;" x1="765.5" x2="765.5" y1="241.1406" y2="254.1406"/><line style="stroke:#181818;stroke-width:1.0;" x1="724.5" x2="765.5" y1="254.1406" y2="254.1406"/><polygon fill="#181818" points="734.5,250.1406,724.5,254.1406,734.5,258.1406,730.5,254.1406" style="stroke:#181818;stroke-width:1.0;"/><text fill="#000000" font-family="sans-serif" font-size="13" lengthAdjust="spacing" textLength="163" x="730.5" y="236.2842">assignDataPointerToTasks()</text><line style="stroke:#181818;stroke-width:1.0;" x1="723.5" x2="765.5" y1="284.4922" y2="284.4922"/><line style="stroke:#181818;stroke-width:1.0;" x1="765.5" x2="765.5" y1="284.4922" y2="297.4922"/><line style="stroke:#181818;stroke-width:1.0;" x1="724.5" x2="765.5" y1="297.4922" y2="297.4922"/><polygon fill="#181818" points="734.5,293.4922,724.5,297.4922,734.5,301.4922,730.5,297.4922" style="stroke:#181818;stroke-width:1.0;"/><text fill="#000000" font-family="sans-serif" font-size="13" lengthAdjust="spacing" textLength="174" x="730.5" y="279.6357">assignStatusPointerToTasks()</text><line style="stroke:#181818;stroke-width:1.0;" x1="723.5" x2="765.5" y1="327.8438" y2="327.8438"/><line style="stroke:#181818;stroke-width:1.0;" x1="765.5" x2="765.5" y1="327.8438" y2="340.8438"/><line style="stroke:#181818;stroke-width:1.0;" x1="724.5" x2="765.5" y1="340.8438" y2="340.8438"/><polygon fill="#181818" points="734.5,336.8438,724.5,340.8438,734.5,344.8438,730.5,340.8438" style="stroke:#181818;stroke-width:1.0;"/><text fill="#000000" font-family="sans-serif" font-size="13" lengthAdjust="spacing" textLength="229" x="730.5" y="322.9873">initContainerForTasksSortedByNames()</text><line style="stroke:#181818;stroke-width:1.0;" x1="723.5" x2="765.5" y1="371.1953" y2="371.1953"/><line style="stroke:#181818;stroke-width:1.0;" x1="765.5" x2="765.5" y1="371.1953" y2="384.1953"/><line style="stroke:#181818;stroke-width:1.0;" x1="724.5" x2="765.5" y1="384.1953" y2="384.1953"/><polygon fill="#181818" points="734.5,380.1953,724.5,384.1953,734.5,388.1953,730.5,384.1953" style="stroke:#181818;stroke-width:1.0;"/><text fill="#000000" font-family="sans-serif" font-size="13" lengthAdjust="spacing" textLength="168" x="730.5" y="366.3389">initContainerForTaskNames()</text><polygon fill="#181818" points="711.5,410.5469,721.5,414.5469,711.5,418.5469,715.5,414.5469" style="stroke:#181818;stroke-width:1.0;"/><line style="stroke:#181818;stroke-width:1.0;" x1="47" x2="717.5" y1="414.5469" y2="414.5469"/><text fill="#000000" font-family="sans-serif" font-size="13" lengthAdjust="spacing" textLength="95" x="54" y="409.6904">getTaskNames()</text><line style="stroke:#181818;stroke-width:1.0;" x1="48" x2="58" y1="428.5469" y2="424.5469"/><line style="stroke:#181818;stroke-width:1.0;" x1="48" x2="58" y1="428.5469" y2="432.5469"/><line style="stroke:#181818;stroke-width:1.0;" x1="47" x2="722.5" y1="428.5469" y2="428.5469"/><polygon fill="#181818" points="711.5,454.8984,721.5,458.8984,711.5,462.8984,715.5,458.8984" style="stroke:#181818;stroke-width:1.0;"/><line style="stroke:#181818;stroke-width:1.0;" x1="47" x2="717.5" y1="458.8984" y2="458.8984"/><text fill="#000000" font-family="sans-serif" font-size="13" lengthAdjust="spacing" textLength="122" x="54" y="454.042">isTaskQueueEmpty()</text><line style="stroke:#181818;stroke-width:1.0;" x1="48" x2="58" y1="472.8984" y2="468.8984"/><line style="stroke:#181818;stroke-width:1.0;" x1="48" x2="58" y1="472.8984" y2="476.8984"/><line style="stroke:#181818;stroke-width:1.0;" x1="47" x2="722.5" y1="472.8984" y2="472.8984"/><path d="M10,487.8984 L71,487.8984 L71,496.25 L61,506.25 L10,506.25 L10,487.8984 " fill="#EEEEEE" style="stroke:#000000;stroke-width:1.5;"/><rect fill="none" height="62.7031" style="stroke:#000000;stroke-width:1.5;" width="821" x="10" y="487.8984"/><text fill="#000000" font-family="sans-serif" font-size="13" font-weight="bold" lengthAdjust="spacing" textLength="16" x="25" y="502.3936">alt</text><text fill="#000000" font-family="sans-serif" font-size="11" font-weight="bold" lengthAdjust="spacing" textLength="142" x="86" y="501.3174">[task queue is not empty]</text><polygon fill="#181818" points="711.5,524.6016,721.5,528.6016,711.5,532.6016,715.5,528.6016" style="stroke:#181818;stroke-width:1.0;"/><line style="stroke:#181818;stroke-width:1.0;" x1="47" x2="717.5" y1="528.6016" y2="528.6016"/><text fill="#000000" font-family="sans-serif" font-size="13" lengthAdjust="spacing" textLength="102" x="54" y="523.7451">clearTaskQueue()</text><line style="stroke:#181818;stroke-width:1.0;" x1="48" x2="58" y1="542.6016" y2="538.6016"/><line style="stroke:#181818;stroke-width:1.0;" x1="48" x2="58" y1="542.6016" y2="546.6016"/><line style="stroke:#181818;stroke-width:1.0;" x1="47" x2="722.5" y1="542.6016" y2="542.6016"/><path d="M10,564.6016 L83,564.6016 L83,572.9531 L73,582.9531 L10,582.9531 L10,564.6016 " fill="#EEEEEE" style="stroke:#000000;stroke-width:1.5;"/><rect fill="none" height="62.7031" style="stroke:#000000;stroke-width:1.5;" width="821" x="10" y="564.6016"/><text fill="#000000" font-family="sans-serif" font-size="13" font-weight="bold" lengthAdjust="spacing" textLength="28" x="25" y="579.0967">loop</text><text fill="#000000" font-family="sans-serif" font-size="11" font-weight="bold" lengthAdjust="spacing" textLength="55" x="98" y="578.0205">[10 times]</text><polygon fill="#181818" points="711.5,601.3047,721.5,605.3047,711.5,609.3047,715.5,605.3047" style="stroke:#181818;stroke-width:1.0;"/><line style="stroke:#181818;stroke-width:1.0;" x1="47" x2="717.5" y1="605.3047" y2="605.3047"/><text fill="#000000" font-family="sans-serif" font-size="13" lengthAdjust="spacing" textLength="159" x="54" y="600.4482">addTaskToQueueByName()</text><line style="stroke:#181818;stroke-width:1.0;" x1="48" x2="58" y1="619.3047" y2="615.3047"/><line style="stroke:#181818;stroke-width:1.0;" x1="48" x2="58" y1="619.3047" y2="623.3047"/><line style="stroke:#181818;stroke-width:1.0;" x1="47" x2="722.5" y1="619.3047" y2="619.3047"/><polygon fill="#181818" points="706.5,652.6563,716.5,656.6563,706.5,660.6563,710.5,656.6563" style="stroke:#181818;stroke-width:1.0;"/><line style="stroke:#181818;stroke-width:1.0;" x1="47" x2="712.5" y1="656.6563" y2="656.6563"/><text fill="#000000" font-family="sans-serif" font-size="13" lengthAdjust="spacing" textLength="43" x="54" y="651.7998">runTQ()</text><path d="M616,671.6563 L689,671.6563 L689,680.0078 L679,690.0078 L616,690.0078 L616,671.6563 " fill="#EEEEEE" style="stroke:#000000;stroke-width:1.5;"/><rect fill="none" height="61.7031" style="stroke:#000000;stroke-width:1.5;" width="239" x="616" y="671.6563"/><text fill="#000000" font-family="sans-serif" font-size="13" font-weight="bold" lengthAdjust="spacing" textLength="28" x="631" y="686.1514">loop</text><text fill="#000000" font-family="sans-serif" font-size="11" font-weight="bold" lengthAdjust="spacing" textLength="146" x="704" y="685.0752">[checkForChangingTask()]</text><line style="stroke:#181818;stroke-width:1.0;" x1="728.5" x2="770.5" y1="712.3594" y2="712.3594"/><line style="stroke:#181818;stroke-width:1.0;" x1="770.5" x2="770.5" y1="712.3594" y2="725.3594"/><line style="stroke:#181818;stroke-width:1.0;" x1="729.5" x2="770.5" y1="725.3594" y2="725.3594"/><polygon fill="#181818" points="739.5,721.3594,729.5,725.3594,739.5,729.3594,735.5,725.3594" style="stroke:#181818;stroke-width:1.0;"/><text fill="#000000" font-family="sans-serif" font-size="13" lengthAdjust="spacing" textLength="78" x="735.5" y="707.5029">changeTask()</text><line style="stroke:#181818;stroke-width:1.0;" x1="48" x2="58" y1="746.3594" y2="742.3594"/><line style="stroke:#181818;stroke-width:1.0;" x1="48" x2="58" y1="746.3594" y2="750.3594"/><line style="stroke:#181818;stroke-width:1.0;" x1="47" x2="722.5" y1="746.3594" y2="746.3594"/><!--MD5=[86dd6f8afb1d50ad74dc8dcf72341340]
@startuml
skinparam monochrome true
skinparam classAttributeIconSize 0

participant "main()" as A
participant "shared_ptr<Data>:spData" as B
participant "shared_ptr<Status>:spExecStatus" as C
participant "unique_ptr<TaskQue>:spTQ" as D
A ->  B **: make_shared<Data>()
A ->  C **: make_shared<Status>()
A ->  D **: make_unique<TaskQue>(spData, spExecStatus)
D -> D : initTasks()
D -> D : assignDataPointerToTasks()
D -> D : assignStatusPointerToTasks()
D -> D : initContainerForTasksSortedByNames()
D -> D : initContainerForTaskNames()
A -> D : getTaskNames()
D ->> A
A -> D : isTaskQueueEmpty()
D ->> A
alt task queue is not empty
A -> D : clearTaskQueue()
D ->> A
end
loop 10 times
A -> D : addTaskToQueueByName()
D ->> A
end

A -> D : runTQ()
activate D

loop checkForChangingTask()
    D -> D: changeTask()
end
D ->> A
deactivate D
@enduml

PlantUML version 1.2022.7(Mon Aug 22 23:01:30 ALMT 2022)
(GPL source distribution)
Java Runtime: Java(TM) SE Runtime Environment
JVM: Java HotSpot(TM) 64-Bit Server VM
Default Encoding: UTF-8
Language: en
Country: GB
--></g></svg>