<?xml version="1.0" encoding="UTF-8" standalone="no"?><svg xmlns="http://www.w3.org/2000/svg" xmlns:xlink="http://www.w3.org/1999/xlink" contentStyleType="text/css" height="595px" preserveAspectRatio="none" style="width:753px;height:595px;background:#FFFFFF;" version="1.1" viewBox="0 0 753 595" width="753px" zoomAndPan="magnify"><defs/><g><!--MD5=[e5cb729776681896271596c23c31c76c]
cluster dataAndStatusGroup--><!--MD5=[60c9ed31c535bee25c55ce21b5b01399]
class Data--><g id="elem_Data"><rect codeLine="6" fill="#F1F1F1" height="65.6094" id="Data" rx="2.5" ry="2.5" style="stroke:#181818;stroke-width:0.5;" width="97" x="75" y="77"/><ellipse cx="105.75" cy="93" fill="#C2C2C2" rx="11" ry="11" style="stroke:#181818;stroke-width:1.0;"/><path d="M108.5156,88.875 Q108.6719,88.6563 108.8594,88.5469 Q109.0469,88.4375 109.2656,88.4375 Q109.6406,88.4375 109.875,88.7031 Q110.1094,88.9531 110.1094,89.5625 L110.1094,91.0156 Q110.1094,91.625 109.875,91.8906 Q109.6406,92.1563 109.2656,92.1563 Q108.9219,92.1563 108.7188,91.9531 Q108.5156,91.7656 108.4063,91.25 Q108.3594,90.8906 108.1719,90.7031 Q107.8438,90.3281 107.2344,90.1094 Q106.625,89.8906 106,89.8906 Q105.2344,89.8906 104.5938,90.2188 Q103.9688,90.5469 103.4688,91.2969 Q102.9844,92.0469 102.9844,93.0781 L102.9844,94.1719 Q102.9844,95.4063 103.875,96.2344 Q104.7656,97.0469 106.3594,97.0469 Q107.2969,97.0469 107.9531,96.7969 Q108.3438,96.6406 108.7656,96.2031 Q109.0313,95.9375 109.1719,95.8594 Q109.3281,95.7813 109.5313,95.7813 Q109.8594,95.7813 110.1094,96.0469 Q110.375,96.2969 110.375,96.6406 Q110.375,96.9844 110.0313,97.3906 Q109.5313,97.9688 108.7344,98.2969 Q107.6563,98.75 106.3594,98.75 Q104.8438,98.75 103.6406,98.125 Q102.6563,97.625 101.9688,96.5625 Q101.2813,95.4844 101.2813,94.2031 L101.2813,93.0469 Q101.2813,91.7188 101.8906,90.5781 Q102.5156,89.4219 103.6094,88.8125 Q104.7031,88.1875 105.9375,88.1875 Q106.6719,88.1875 107.3125,88.3594 Q107.9688,88.5156 108.5156,88.875 Z " fill="#000000"/><text fill="#000000" font-family="sans-serif" font-size="14" lengthAdjust="spacing" textLength="30" x="123.25" y="98.7285">Data</text><line style="stroke:#181818;stroke-width:0.5;" x1="76" x2="171" y1="109" y2="109"/><text fill="#000000" font-family="sans-serif" font-size="14" lengthAdjust="spacing" textLength="85" x="81" y="127.5332">+vGuestBook</text><line style="stroke:#181818;stroke-width:0.5;" x1="76" x2="171" y1="134.6094" y2="134.6094"/></g><!--MD5=[e3d83ec5fd90ea9f3f2bfe265cb53458]
class Status--><g id="elem_Status"><rect codeLine="10" fill="#F1F1F1" height="153.6563" id="Status" rx="2.5" ry="2.5" style="stroke:#181818;stroke-width:0.5;" width="167" x="7" y="299.5"/><ellipse cx="66.25" cy="315.5" fill="#C2C2C2" rx="11" ry="11" style="stroke:#181818;stroke-width:1.0;"/><path d="M69.0156,311.375 Q69.1719,311.1563 69.3594,311.0469 Q69.5469,310.9375 69.7656,310.9375 Q70.1406,310.9375 70.375,311.2031 Q70.6094,311.4531 70.6094,312.0625 L70.6094,313.5156 Q70.6094,314.125 70.375,314.3906 Q70.1406,314.6563 69.7656,314.6563 Q69.4219,314.6563 69.2188,314.4531 Q69.0156,314.2656 68.9063,313.75 Q68.8594,313.3906 68.6719,313.2031 Q68.3438,312.8281 67.7344,312.6094 Q67.125,312.3906 66.5,312.3906 Q65.7344,312.3906 65.0938,312.7188 Q64.4688,313.0469 63.9688,313.7969 Q63.4844,314.5469 63.4844,315.5781 L63.4844,316.6719 Q63.4844,317.9063 64.375,318.7344 Q65.2656,319.5469 66.8594,319.5469 Q67.7969,319.5469 68.4531,319.2969 Q68.8438,319.1406 69.2656,318.7031 Q69.5313,318.4375 69.6719,318.3594 Q69.8281,318.2813 70.0313,318.2813 Q70.3594,318.2813 70.6094,318.5469 Q70.875,318.7969 70.875,319.1406 Q70.875,319.4844 70.5313,319.8906 Q70.0313,320.4688 69.2344,320.7969 Q68.1563,321.25 66.8594,321.25 Q65.3438,321.25 64.1406,320.625 Q63.1563,320.125 62.4688,319.0625 Q61.7813,317.9844 61.7813,316.7031 L61.7813,315.5469 Q61.7813,314.2188 62.3906,313.0781 Q63.0156,311.9219 64.1094,311.3125 Q65.2031,310.6875 66.4375,310.6875 Q67.1719,310.6875 67.8125,310.8594 Q68.4688,311.0156 69.0156,311.375 Z " fill="#000000"/><text fill="#000000" font-family="sans-serif" font-size="14" lengthAdjust="spacing" textLength="40" x="86.75" y="321.2285">Status</text><line style="stroke:#181818;stroke-width:0.5;" x1="8" x2="173" y1="331.5" y2="331.5"/><text fill="#000000" font-family="sans-serif" font-size="14" lengthAdjust="spacing" textLength="155" x="13" y="350.0332">-bExecutionStatus = true</text><text fill="#000000" font-family="sans-serif" font-size="14" lengthAdjust="spacing" textLength="107" x="13" y="367.6426">-spExecMessage</text><line style="stroke:#181818;stroke-width:0.5;" x1="8" x2="173" y1="374.7188" y2="374.7188"/><text fill="#000000" font-family="sans-serif" font-size="14" lengthAdjust="spacing" textLength="77" x="13" y="393.252">+setStatus()</text><text fill="#000000" font-family="sans-serif" font-size="14" lengthAdjust="spacing" textLength="134" x="13" y="410.8613">+setStatusMessage()</text><text fill="#000000" font-family="sans-serif" font-size="14" lengthAdjust="spacing" textLength="78" x="13" y="428.4707">+getStatus()</text><text fill="#000000" font-family="sans-serif" font-size="14" lengthAdjust="spacing" textLength="135" x="13" y="446.0801">+getStatusMessage()</text></g><!--MD5=[3c3a3d87acb692e8645baa041af43ebf]
class TaskQueue--><g id="elem_TaskQueue"><rect codeLine="19" fill="#F1F1F1" height="206.4844" id="TaskQueue" rx="2.5" ry="2.5" style="stroke:#181818;stroke-width:0.5;" width="197" x="207" y="7"/><ellipse cx="264.25" cy="23" fill="#C2C2C2" rx="11" ry="11" style="stroke:#181818;stroke-width:1.0;"/><path d="M267.0156,18.875 Q267.1719,18.6563 267.3594,18.5469 Q267.5469,18.4375 267.7656,18.4375 Q268.1406,18.4375 268.375,18.7031 Q268.6094,18.9531 268.6094,19.5625 L268.6094,21.0156 Q268.6094,21.625 268.375,21.8906 Q268.1406,22.1563 267.7656,22.1563 Q267.4219,22.1563 267.2188,21.9531 Q267.0156,21.7656 266.9063,21.25 Q266.8594,20.8906 266.6719,20.7031 Q266.3438,20.3281 265.7344,20.1094 Q265.125,19.8906 264.5,19.8906 Q263.7344,19.8906 263.0938,20.2188 Q262.4688,20.5469 261.9688,21.2969 Q261.4844,22.0469 261.4844,23.0781 L261.4844,24.1719 Q261.4844,25.4063 262.375,26.2344 Q263.2656,27.0469 264.8594,27.0469 Q265.7969,27.0469 266.4531,26.7969 Q266.8438,26.6406 267.2656,26.2031 Q267.5313,25.9375 267.6719,25.8594 Q267.8281,25.7813 268.0313,25.7813 Q268.3594,25.7813 268.6094,26.0469 Q268.875,26.2969 268.875,26.6406 Q268.875,26.9844 268.5313,27.3906 Q268.0313,27.9688 267.2344,28.2969 Q266.1563,28.75 264.8594,28.75 Q263.3438,28.75 262.1406,28.125 Q261.1563,27.625 260.4688,26.5625 Q259.7813,25.4844 259.7813,24.2031 L259.7813,23.0469 Q259.7813,21.7188 260.3906,20.5781 Q261.0156,19.4219 262.1094,18.8125 Q263.2031,18.1875 264.4375,18.1875 Q265.1719,18.1875 265.8125,18.3594 Q266.4688,18.5156 267.0156,18.875 Z " fill="#000000"/><text fill="#000000" font-family="sans-serif" font-size="14" lengthAdjust="spacing" textLength="74" x="284.75" y="28.7285">TaskQueue</text><line style="stroke:#181818;stroke-width:0.5;" x1="208" x2="403" y1="39" y2="39"/><line style="stroke:#181818;stroke-width:0.5;" x1="208" x2="403" y1="47" y2="47"/><text fill="#000000" font-family="sans-serif" font-size="14" lengthAdjust="spacing" textLength="92" x="213" y="65.5332">+TaskQueue()</text><text fill="#000000" font-family="sans-serif" font-size="14" lengthAdjust="spacing" textLength="100" x="213" y="83.1426">+~TaskQueue()</text><text fill="#000000" font-family="sans-serif" font-size="14" lengthAdjust="spacing" textLength="123" x="213" y="100.752">+clearTaskQueue()</text><text fill="#000000" font-family="sans-serif" font-size="14" lengthAdjust="spacing" textLength="185" x="213" y="118.3613">+addTaskToQueueByName()</text><text fill="#000000" font-family="sans-serif" font-size="14" lengthAdjust="spacing" textLength="112" x="213" y="135.9707">+getTaskNames()</text><text fill="#000000" font-family="sans-serif" font-size="14" lengthAdjust="spacing" textLength="141" x="213" y="153.5801">+isTaskQueueEmpty()</text><text fill="#000000" font-family="sans-serif" font-size="14" lengthAdjust="spacing" textLength="59" x="213" y="171.1895">+runTQ()</text><text fill="#000000" font-family="sans-serif" font-size="14" lengthAdjust="spacing" textLength="169" x="213" y="188.7988">#checkForChangingTask()</text><text fill="#000000" font-family="sans-serif" font-size="14" lengthAdjust="spacing" textLength="96" x="213" y="206.4082">#changeTask()</text></g><!--MD5=[b34797a66dc35cbf1d65f7e3ca75530e]
class Task--><g id="elem_Task"><rect codeLine="31" fill="#F1F1F1" height="171.2656" id="Task" rx="2.5" ry="2.5" style="stroke:#181818;stroke-width:0.5;" width="134" x="393.5" y="291"/><ellipse cx="440.75" cy="307" fill="#C2C2C2" rx="11" ry="11" style="stroke:#181818;stroke-width:1.0;"/><path d="M443.5156,302.875 Q443.6719,302.6563 443.8594,302.5469 Q444.0469,302.4375 444.2656,302.4375 Q444.6406,302.4375 444.875,302.7031 Q445.1094,302.9531 445.1094,303.5625 L445.1094,305.0156 Q445.1094,305.625 444.875,305.8906 Q444.6406,306.1563 444.2656,306.1563 Q443.9219,306.1563 443.7188,305.9531 Q443.5156,305.7656 443.4063,305.25 Q443.3594,304.8906 443.1719,304.7031 Q442.8438,304.3281 442.2344,304.1094 Q441.625,303.8906 441,303.8906 Q440.2344,303.8906 439.5938,304.2188 Q438.9688,304.5469 438.4688,305.2969 Q437.9844,306.0469 437.9844,307.0781 L437.9844,308.1719 Q437.9844,309.4063 438.875,310.2344 Q439.7656,311.0469 441.3594,311.0469 Q442.2969,311.0469 442.9531,310.7969 Q443.3438,310.6406 443.7656,310.2031 Q444.0313,309.9375 444.1719,309.8594 Q444.3281,309.7813 444.5313,309.7813 Q444.8594,309.7813 445.1094,310.0469 Q445.375,310.2969 445.375,310.6406 Q445.375,310.9844 445.0313,311.3906 Q444.5313,311.9688 443.7344,312.2969 Q442.6563,312.75 441.3594,312.75 Q439.8438,312.75 438.6406,312.125 Q437.6563,311.625 436.9688,310.5625 Q436.2813,309.4844 436.2813,308.2031 L436.2813,307.0469 Q436.2813,305.7188 436.8906,304.5781 Q437.5156,303.4219 438.6094,302.8125 Q439.7031,302.1875 440.9375,302.1875 Q441.6719,302.1875 442.3125,302.3594 Q442.9688,302.5156 443.5156,302.875 Z " fill="#000000"/><text fill="#000000" font-family="sans-serif" font-size="14" lengthAdjust="spacing" textLength="31" x="461.25" y="312.7285">Task</text><line style="stroke:#181818;stroke-width:0.5;" x1="394.5" x2="526.5" y1="323" y2="323"/><text fill="#000000" font-family="sans-serif" font-size="14" lengthAdjust="spacing" textLength="53" x="399.5" y="341.5332">#spData</text><text fill="#000000" font-family="sans-serif" font-size="14" lengthAdjust="spacing" textLength="63" x="399.5" y="359.1426">#spStatus</text><line style="stroke:#181818;stroke-width:0.5;" x1="394.5" x2="526.5" y1="366.2188" y2="366.2188"/><text fill="#000000" font-family="sans-serif" font-size="14" font-style="italic" lengthAdjust="spacing" textLength="50" x="399.5" y="384.752">+Task()</text><text fill="#000000" font-family="sans-serif" font-size="14" font-style="italic" lengthAdjust="spacing" textLength="99" x="399.5" y="402.3613">+executeTask()</text><text fill="#000000" font-family="sans-serif" font-size="14" lengthAdjust="spacing" textLength="112" x="399.5" y="419.9707">+setDataPointer()</text><text fill="#000000" font-family="sans-serif" font-size="14" lengthAdjust="spacing" textLength="122" x="399.5" y="437.5801">+setStatusPointer()</text><text fill="#000000" font-family="sans-serif" font-size="14" lengthAdjust="spacing" textLength="105" x="399.5" y="455.1895">+getTaskName()</text></g><!--MD5=[322831c7fb07c6c72ab5bbd550828810]
class Task1--><g id="elem_Task1"><rect codeLine="40" fill="#F1F1F1" height="65.6094" id="Task1" rx="2.5" ry="2.5" style="stroke:#181818;stroke-width:0.5;" width="110" x="346.5" y="523"/><ellipse cx="379.05" cy="539" fill="#C2C2C2" rx="11" ry="11" style="stroke:#181818;stroke-width:1.0;"/><path d="M381.8156,534.875 Q381.9719,534.6563 382.1594,534.5469 Q382.3469,534.4375 382.5656,534.4375 Q382.9406,534.4375 383.175,534.7031 Q383.4094,534.9531 383.4094,535.5625 L383.4094,537.0156 Q383.4094,537.625 383.175,537.8906 Q382.9406,538.1563 382.5656,538.1563 Q382.2219,538.1563 382.0188,537.9531 Q381.8156,537.7656 381.7063,537.25 Q381.6594,536.8906 381.4719,536.7031 Q381.1438,536.3281 380.5344,536.1094 Q379.925,535.8906 379.3,535.8906 Q378.5344,535.8906 377.8938,536.2188 Q377.2688,536.5469 376.7688,537.2969 Q376.2844,538.0469 376.2844,539.0781 L376.2844,540.1719 Q376.2844,541.4063 377.175,542.2344 Q378.0656,543.0469 379.6594,543.0469 Q380.5969,543.0469 381.2531,542.7969 Q381.6438,542.6406 382.0656,542.2031 Q382.3313,541.9375 382.4719,541.8594 Q382.6281,541.7813 382.8313,541.7813 Q383.1594,541.7813 383.4094,542.0469 Q383.675,542.2969 383.675,542.6406 Q383.675,542.9844 383.3313,543.3906 Q382.8313,543.9688 382.0344,544.2969 Q380.9563,544.75 379.6594,544.75 Q378.1438,544.75 376.9406,544.125 Q375.9563,543.625 375.2688,542.5625 Q374.5813,541.4844 374.5813,540.2031 L374.5813,539.0469 Q374.5813,537.7188 375.1906,536.5781 Q375.8156,535.4219 376.9094,534.8125 Q378.0031,534.1875 379.2375,534.1875 Q379.9719,534.1875 380.6125,534.3594 Q381.2688,534.5156 381.8156,534.875 Z " fill="#000000"/><text fill="#000000" font-family="sans-serif" font-size="14" lengthAdjust="spacing" textLength="39" x="396.95" y="544.7285">Task1</text><line style="stroke:#181818;stroke-width:0.5;" x1="347.5" x2="455.5" y1="555" y2="555"/><line style="stroke:#181818;stroke-width:0.5;" x1="347.5" x2="455.5" y1="563" y2="563"/><text fill="#000000" font-family="sans-serif" font-size="14" lengthAdjust="spacing" textLength="98" x="352.5" y="581.5332">+executeTask()</text></g><!--MD5=[919b16c34e1bc5925aa13477dc23c5a6]
class Task2--><g id="elem_Task2"><rect codeLine="43" fill="#F1F1F1" height="65.6094" id="Task2" rx="2.5" ry="2.5" style="stroke:#181818;stroke-width:0.5;" width="110" x="201.5" y="523"/><ellipse cx="234.05" cy="539" fill="#C2C2C2" rx="11" ry="11" style="stroke:#181818;stroke-width:1.0;"/><path d="M236.8156,534.875 Q236.9719,534.6563 237.1594,534.5469 Q237.3469,534.4375 237.5656,534.4375 Q237.9406,534.4375 238.175,534.7031 Q238.4094,534.9531 238.4094,535.5625 L238.4094,537.0156 Q238.4094,537.625 238.175,537.8906 Q237.9406,538.1563 237.5656,538.1563 Q237.2219,538.1563 237.0188,537.9531 Q236.8156,537.7656 236.7063,537.25 Q236.6594,536.8906 236.4719,536.7031 Q236.1438,536.3281 235.5344,536.1094 Q234.925,535.8906 234.3,535.8906 Q233.5344,535.8906 232.8938,536.2188 Q232.2688,536.5469 231.7688,537.2969 Q231.2844,538.0469 231.2844,539.0781 L231.2844,540.1719 Q231.2844,541.4063 232.175,542.2344 Q233.0656,543.0469 234.6594,543.0469 Q235.5969,543.0469 236.2531,542.7969 Q236.6438,542.6406 237.0656,542.2031 Q237.3313,541.9375 237.4719,541.8594 Q237.6281,541.7813 237.8313,541.7813 Q238.1594,541.7813 238.4094,542.0469 Q238.675,542.2969 238.675,542.6406 Q238.675,542.9844 238.3313,543.3906 Q237.8313,543.9688 237.0344,544.2969 Q235.9563,544.75 234.6594,544.75 Q233.1438,544.75 231.9406,544.125 Q230.9563,543.625 230.2688,542.5625 Q229.5813,541.4844 229.5813,540.2031 L229.5813,539.0469 Q229.5813,537.7188 230.1906,536.5781 Q230.8156,535.4219 231.9094,534.8125 Q233.0031,534.1875 234.2375,534.1875 Q234.9719,534.1875 235.6125,534.3594 Q236.2688,534.5156 236.8156,534.875 Z " fill="#000000"/><text fill="#000000" font-family="sans-serif" font-size="14" lengthAdjust="spacing" textLength="39" x="251.95" y="544.7285">Task2</text><line style="stroke:#181818;stroke-width:0.5;" x1="202.5" x2="310.5" y1="555" y2="555"/><line style="stroke:#181818;stroke-width:0.5;" x1="202.5" x2="310.5" y1="563" y2="563"/><text fill="#000000" font-family="sans-serif" font-size="14" lengthAdjust="spacing" textLength="98" x="207.5" y="581.5332">+executeTask()</text></g><!--MD5=[17e21927907ef8af5f899d46c6ba6031]
class Task3--><g id="elem_Task3"><rect codeLine="46" fill="#F1F1F1" height="65.6094" id="Task3" rx="2.5" ry="2.5" style="stroke:#181818;stroke-width:0.5;" width="110" x="636.5" y="523"/><ellipse cx="669.05" cy="539" fill="#C2C2C2" rx="11" ry="11" style="stroke:#181818;stroke-width:1.0;"/><path d="M671.8156,534.875 Q671.9719,534.6563 672.1594,534.5469 Q672.3469,534.4375 672.5656,534.4375 Q672.9406,534.4375 673.175,534.7031 Q673.4094,534.9531 673.4094,535.5625 L673.4094,537.0156 Q673.4094,537.625 673.175,537.8906 Q672.9406,538.1563 672.5656,538.1563 Q672.2219,538.1563 672.0188,537.9531 Q671.8156,537.7656 671.7063,537.25 Q671.6594,536.8906 671.4719,536.7031 Q671.1438,536.3281 670.5344,536.1094 Q669.925,535.8906 669.3,535.8906 Q668.5344,535.8906 667.8938,536.2188 Q667.2688,536.5469 666.7688,537.2969 Q666.2844,538.0469 666.2844,539.0781 L666.2844,540.1719 Q666.2844,541.4063 667.175,542.2344 Q668.0656,543.0469 669.6594,543.0469 Q670.5969,543.0469 671.2531,542.7969 Q671.6438,542.6406 672.0656,542.2031 Q672.3313,541.9375 672.4719,541.8594 Q672.6281,541.7813 672.8313,541.7813 Q673.1594,541.7813 673.4094,542.0469 Q673.675,542.2969 673.675,542.6406 Q673.675,542.9844 673.3313,543.3906 Q672.8313,543.9688 672.0344,544.2969 Q670.9563,544.75 669.6594,544.75 Q668.1438,544.75 666.9406,544.125 Q665.9563,543.625 665.2688,542.5625 Q664.5813,541.4844 664.5813,540.2031 L664.5813,539.0469 Q664.5813,537.7188 665.1906,536.5781 Q665.8156,535.4219 666.9094,534.8125 Q668.0031,534.1875 669.2375,534.1875 Q669.9719,534.1875 670.6125,534.3594 Q671.2688,534.5156 671.8156,534.875 Z " fill="#000000"/><text fill="#000000" font-family="sans-serif" font-size="14" lengthAdjust="spacing" textLength="39" x="686.95" y="544.7285">Task3</text><line style="stroke:#181818;stroke-width:0.5;" x1="637.5" x2="745.5" y1="555" y2="555"/><line style="stroke:#181818;stroke-width:0.5;" x1="637.5" x2="745.5" y1="563" y2="563"/><text fill="#000000" font-family="sans-serif" font-size="14" lengthAdjust="spacing" textLength="98" x="642.5" y="581.5332">+executeTask()</text></g><!--MD5=[10449178d0628e7b0ec52443822bf3d2]
class Task4--><g id="elem_Task4"><rect codeLine="49" fill="#F1F1F1" height="65.6094" id="Task4" rx="2.5" ry="2.5" style="stroke:#181818;stroke-width:0.5;" width="110" x="491.5" y="523"/><ellipse cx="524.05" cy="539" fill="#C2C2C2" rx="11" ry="11" style="stroke:#181818;stroke-width:1.0;"/><path d="M526.8156,534.875 Q526.9719,534.6563 527.1594,534.5469 Q527.3469,534.4375 527.5656,534.4375 Q527.9406,534.4375 528.175,534.7031 Q528.4094,534.9531 528.4094,535.5625 L528.4094,537.0156 Q528.4094,537.625 528.175,537.8906 Q527.9406,538.1563 527.5656,538.1563 Q527.2219,538.1563 527.0188,537.9531 Q526.8156,537.7656 526.7063,537.25 Q526.6594,536.8906 526.4719,536.7031 Q526.1438,536.3281 525.5344,536.1094 Q524.925,535.8906 524.3,535.8906 Q523.5344,535.8906 522.8938,536.2188 Q522.2688,536.5469 521.7688,537.2969 Q521.2844,538.0469 521.2844,539.0781 L521.2844,540.1719 Q521.2844,541.4063 522.175,542.2344 Q523.0656,543.0469 524.6594,543.0469 Q525.5969,543.0469 526.2531,542.7969 Q526.6438,542.6406 527.0656,542.2031 Q527.3313,541.9375 527.4719,541.8594 Q527.6281,541.7813 527.8313,541.7813 Q528.1594,541.7813 528.4094,542.0469 Q528.675,542.2969 528.675,542.6406 Q528.675,542.9844 528.3313,543.3906 Q527.8313,543.9688 527.0344,544.2969 Q525.9563,544.75 524.6594,544.75 Q523.1438,544.75 521.9406,544.125 Q520.9563,543.625 520.2688,542.5625 Q519.5813,541.4844 519.5813,540.2031 L519.5813,539.0469 Q519.5813,537.7188 520.1906,536.5781 Q520.8156,535.4219 521.9094,534.8125 Q523.0031,534.1875 524.2375,534.1875 Q524.9719,534.1875 525.6125,534.3594 Q526.2688,534.5156 526.8156,534.875 Z " fill="#000000"/><text fill="#000000" font-family="sans-serif" font-size="14" lengthAdjust="spacing" textLength="39" x="541.95" y="544.7285">Task4</text><line style="stroke:#181818;stroke-width:0.5;" x1="492.5" x2="600.5" y1="555" y2="555"/><line style="stroke:#181818;stroke-width:0.5;" x1="492.5" x2="600.5" y1="563" y2="563"/><text fill="#000000" font-family="sans-serif" font-size="14" lengthAdjust="spacing" textLength="98" x="497.5" y="581.5332">+executeTask()</text></g><!--MD5=[2ac735eaaf70f6a1dab79ab71d189e63]
reverse link Task to Task1--><g id="link_Task_Task1"><path codeLine="53" d="M426,481.29 C421.01,496.3 416.22,510.72 412.21,522.77 " fill="none" id="Task-backto-Task1" style="stroke:#181818;stroke-width:1.0;"/><polygon fill="none" points="419.43,478.86,432.38,462.09,432.72,483.28,419.43,478.86" style="stroke:#181818;stroke-width:1.0;"/></g><!--MD5=[0d429ce4c25390a0a3a59fc889c5ac77]
reverse link Task to Task2--><g id="link_Task_Task2"><path codeLine="54" d="M378.31,449.01 C348.92,474.58 317.25,502.14 293.57,522.75 " fill="none" id="Task-backto-Task2" style="stroke:#181818;stroke-width:1.0;"/><polygon fill="none" points="373.74,443.71,393.42,435.87,382.93,454.28,373.74,443.71" style="stroke:#181818;stroke-width:1.0;"/></g><!--MD5=[8d6b5d20b56cef58995d69385888f5ae]
reverse link Task to Task3--><g id="link_Task_Task3"><path codeLine="55" d="M543.77,441.48 C579.71,469.1 620.18,500.2 649.66,522.85 " fill="none" id="Task-backto-Task3" style="stroke:#181818;stroke-width:1.0;"/><polygon fill="none" points="539.22,446.82,527.63,429.08,547.75,435.71,539.22,446.82" style="stroke:#181818;stroke-width:1.0;"/></g><!--MD5=[54334587b68f040dbd72d056d26daf40]
reverse link Task to Task4--><g id="link_Task_Task4"><path codeLine="56" d="M508.49,480.67 C510.51,484.84 512.52,488.96 514.5,493 C519.31,502.78 524.69,513.35 529.65,522.94 " fill="none" id="Task-backto-Task4" style="stroke:#181818;stroke-width:1.0;"/><polygon fill="none" points="501.97,483.27,499.64,462.21,514.6,477.22,501.97,483.27" style="stroke:#181818;stroke-width:1.0;"/></g><!--MD5=[64bd2c3f3d4c401dece5141b33a14ce0]
link TaskQueue to Data--><g id="link_TaskQueue_Data"><path codeLine="58" d="M194.873,133.5549 C194.873,133.5549 187.88,132.66 184.91,132.13 " fill="none" id="TaskQueue-Data" style="stroke:#181818;stroke-width:1.0;"/><polygon fill="#181818" points="172.2,129.4,180.1603,135.1994,177.0887,130.4491,181.839,127.3775,172.2,129.4" style="stroke:#181818;stroke-width:1.0;"/><line style="stroke:#181818;stroke-width:1.0;" x1="177.0887" x2="184.905" y1="130.4491" y2="132.13"/><polygon fill="none" points="206.83,134.57,201.1899,130.0768,194.873,133.5549,200.5131,138.0481,206.83,134.57" style="stroke:#181818;stroke-width:1.0;"/></g><!--MD5=[64bd2c3f3d4c401dece5141b33a14ce0]
link TaskQueue to Data--><!--MD5=[274571e9f05a220cdba89e0885097da5]
link TaskQueue to Status--><g id="link_TaskQueue_Status"><path codeLine="59" d="M202.256,222.4938 C202.256,222.4938 165.18,267.99 148.84,288.91 " fill="none" id="TaskQueue-Status" style="stroke:#181818;stroke-width:1.0;"/><polygon fill="#181818" points="140.73,299.35,149.4079,294.6924,143.7955,295.4,143.0879,289.7876,140.73,299.35" style="stroke:#181818;stroke-width:1.0;"/><line style="stroke:#181818;stroke-width:1.0;" x1="143.7955" x2="148.695" y1="295.4" y2="289.09"/><polygon fill="none" points="209.92,213.26,203.0101,215.3222,202.256,222.4938,209.1659,220.4316,209.92,213.26" style="stroke:#181818;stroke-width:1.0;"/></g><!--MD5=[274571e9f05a220cdba89e0885097da5]
link TaskQueue to Status--><!--MD5=[6d7daa260a488c986cc9e89cc75bcb17]
link TaskQueue to Task1--><g id="link_TaskQueue_Task1"><path codeLine="60" d="M323.2299,225.1639 C323.2299,225.1639 353.7,394.3 375.5,477.5 C378.31,488.24 381.83,499.65 385.37,510.31 " fill="none" id="TaskQueue-Task1" style="stroke:#181818;stroke-width:1.0;"/><polygon fill="#181818" points="389.64,522.87,390.5308,513.0615,388.0309,518.136,382.9564,515.6361,389.64,522.87" style="stroke:#181818;stroke-width:1.0;"/><line style="stroke:#181818;stroke-width:1.0;" x1="388.0309" x2="385.45" y1="518.136" y2="510.555"/><polygon fill="#181818" points="321.24,213.33,318.2903,219.9102,323.2299,225.1639,326.1796,218.5836,321.24,213.33" style="stroke:#181818;stroke-width:1.0;"/></g><!--MD5=[82f7d915e3d15e9b3565d5eff5319dc2]
link TaskQueue to Task2--><g id="link_TaskQueue_Task2"><path codeLine="61" d="M292.9106,225.0672 C292.9106,225.0672 268.84,443.2 261.54,509.34 " fill="none" id="TaskQueue-Task2" style="stroke:#181818;stroke-width:1.0;"/><polygon fill="#181818" points="260.08,522.54,265.036,514.0289,260.6243,517.5697,257.0835,513.158,260.08,522.54" style="stroke:#181818;stroke-width:1.0;"/><line style="stroke:#181818;stroke-width:1.0;" x1="260.6243" x2="261.51" y1="517.5697" y2="509.615"/><polygon fill="#181818" points="294.23,213.14,289.5946,218.6638,292.9106,225.0672,297.5461,219.5434,294.23,213.14" style="stroke:#181818;stroke-width:1.0;"/></g><!--MD5=[6127048a9e067b1b96eae2a95053dc7a]
link TaskQueue to Task3--><g id="link_TaskQueue_Task3"><path codeLine="62" d="M414.8778,159.1371 C414.8778,159.1371 506.97,209.98 545.5,243 C628.31,313.95 667.22,442.12 682.76,510 " fill="none" id="TaskQueue-Task3" style="stroke:#181818;stroke-width:1.0;"/><polygon fill="#181818" points="685.56,522.74,687.5262,513.0894,684.4823,517.8575,679.7142,514.8137,685.56,522.74" style="stroke:#181818;stroke-width:1.0;"/><line style="stroke:#181818;stroke-width:1.0;" x1="684.4823" x2="682.77" y1="517.8575" y2="510.04"/><polygon fill="#181818" points="404.15,153.76,407.7216,160.0245,414.8778,159.1371,411.3063,152.8726,404.15,153.76" style="stroke:#181818;stroke-width:1.0;"/></g><!--MD5=[f876d01927db1a3fc265a182f8558cd6]
link TaskQueue to Task4--><g id="link_TaskQueue_Task4"><path codeLine="63" d="M414.6227,163.1321 C414.6227,163.1321 517.95,236.16 545.5,291 C580.66,361 569.32,455.2 557.9,510.09 " fill="none" id="TaskQueue-Task4" style="stroke:#181818;stroke-width:1.0;"/><polygon fill="#181818" points="555.1,522.83,560.9439,514.9023,556.1765,517.9473,553.1315,513.1799,555.1,522.83" style="stroke:#181818;stroke-width:1.0;"/><line style="stroke:#181818;stroke-width:1.0;" x1="556.1765" x2="557.885" y1="517.9473" y2="510.13"/><polygon fill="#181818" points="404.29,157.03,407.4223,163.5253,414.6227,163.1321,411.4904,156.6368,404.29,157.03" style="stroke:#181818;stroke-width:1.0;"/></g><!--MD5=[20d01a4b8ba3460d43a9bec3d1fbb804]
link TaskQueue to Task--><g id="link_TaskQueue_Task"><path codeLine="65" d="M365.43,213.26 C379.54,237.35 394.48,262.84 408.22,286.29 " fill="none" id="TaskQueue-to-Task" style="stroke:#181818;stroke-width:1.0;stroke-dasharray:7.0,7.0;"/><polygon fill="#181818" points="410.78,290.65,409.6801,280.8627,408.2518,286.3363,402.7782,284.9079,410.78,290.65" style="stroke:#181818;stroke-width:1.0;"/><text fill="#000000" font-family="sans-serif" font-size="13" lengthAdjust="spacing" textLength="42" x="392.5" y="257.4951">«uses»</text></g><!--MD5=[565a62bc6257387e7aedcdc61096ef1d]
link Data to Status--><!--MD5=[6834c0a892ef647a341e0d4ad01006f3]
@startuml

skinparam monochrome true
skinparam classAttributeIconSize 0

together dataAndStatusGroup{
    class Data{
        +vGuestBook
    }

    class Status{
        +setStatus()
        +setStatusMessage()
        +getStatus()
        +getStatusMessage()
        -bExecutionStatus = true
        -spExecMessage
    }
}
class TaskQueue{
    +TaskQueue()
    +~TaskQueue()
    +clearTaskQueue()
    +addTaskToQueueByName()
    +getTaskNames()
    +isTaskQueueEmpty()
    +runTQ()
    #checkForChangingTask()
    #changeTask()
}

class Task{
    {abstract}+Task()
    #spData
    #spStatus
    {abstract}+executeTask()
    +setDataPointer()
    +setStatusPointer()
    +getTaskName()
}
class Task1{
    +executeTask()
}
class Task2{
    +executeTask()
}
class Task3{
    +executeTask()
}
class Task4{
    +executeTask()
}

Task <|- - Task1
Task <|- - Task2
Task <|- - Task3
Task <|- - Task4

TaskQueue o- -> Data
TaskQueue o- -> Status
TaskQueue *- -> Task1
TaskQueue *- -> Task2
TaskQueue *- -> Task3
TaskQueue *- -> Task4

TaskQueue ..> Task:<<uses>>

Data -[hidden]down- Status
TaskQueue -[hidden]right- - Data
TaskQueue -[hidden]right- - Status
@enduml

PlantUML version 1.2022.7(Mon Aug 22 23:01:30 ALMT 2022)
(GPL source distribution)
Java Runtime: Java(TM) SE Runtime Environment
JVM: Java HotSpot(TM) 64-Bit Server VM
Default Encoding: UTF-8
Language: en
Country: GB
--></g></svg>